# This file was created with Minddesk Qubicle 3.0
# Get Qubicle at www.getqubicle.com

mtllib 4.mtl

vn 0.0 0.0 1.0
vn 0.0 0.0 -1.0
vn -1.0 0.0 0.0
vn 1.0 0.0 0.0
vn 0.0 1.0 0.0
vn 0.0 -1.0 0.0

v -3.50000 -2.00000 -2.00000
v -3.50000 -3.00000 -2.00000
v -3.50000 -3.00000 -1.00000
v -3.50000 -2.00000 -1.00000
v -2.50000 -3.00000 -2.00000
v -2.50000 -3.00000 -1.00000
v -2.50000 -2.00000 -2.00000
v -3.50000 -1.00000 -2.00000
v -3.50000 -1.00000 -1.00000
v -2.50000 -1.00000 -2.00000
v -3.50000 0.00000 -2.00000
v -3.50000 0.00000 -1.00000
v -2.50000 0.00000 -2.00000
v -3.50000 1.00000 -2.00000
v -3.50000 1.00000 -1.00000
v -2.50000 1.00000 -2.00000
v -3.50000 2.00000 -2.00000
v -3.50000 2.00000 -1.00000
v -2.50000 2.00000 -2.00000
v -3.50000 3.00000 -2.00000
v -3.50000 3.00000 -1.00000
v -2.50000 3.00000 -2.00000
v -3.50000 4.00000 -2.00000
v -3.50000 4.00000 -1.00000
v -2.50000 4.00000 -2.00000
v -3.50000 5.00000 -2.00000
v -3.50000 5.00000 -1.00000
v -2.50000 5.00000 -1.00000
v -2.50000 5.00000 -2.00000
v -1.50000 -3.00000 -2.00000
v -1.50000 -3.00000 -1.00000
v -1.50000 -2.00000 -2.00000
v -1.50000 -1.00000 -2.00000
v -1.50000 0.00000 -1.00000
v -1.50000 -1.00000 -1.00000
v -1.50000 0.00000 -2.00000
v -1.50000 1.00000 -1.00000
v -1.50000 1.00000 -2.00000
v -1.50000 2.00000 -1.00000
v -1.50000 2.00000 -2.00000
v -1.50000 3.00000 -1.00000
v -1.50000 3.00000 -2.00000
v -1.50000 4.00000 -1.00000
v -1.50000 4.00000 -2.00000
v -1.50000 5.00000 -1.00000
v -1.50000 5.00000 -2.00000
v -0.50000 -3.00000 -2.00000
v -0.50000 -3.00000 -1.00000
v -0.50000 -2.00000 -2.00000
v -0.50000 -1.00000 -1.00000
v -0.50000 -1.00000 -2.00000
v -0.50000 -4.00000 -2.00000
v -0.50000 -5.00000 -2.00000
v -0.50000 -5.00000 -1.00000
v -0.50000 -4.00000 -1.00000
v 0.50000 -5.00000 -2.00000
v 0.50000 -5.00000 -1.00000
v 0.50000 -4.00000 -2.00000
v 0.50000 -3.00000 -2.00000
v 0.50000 -2.00000 -2.00000
v 0.50000 -1.00000 -2.00000
v -0.50000 0.00000 -2.00000
v -0.50000 0.00000 -1.00000
v 0.50000 0.00000 -2.00000
v -0.50000 1.00000 -2.00000
v -0.50000 1.00000 -1.00000
v 0.50000 1.00000 -1.00000
v 0.50000 1.00000 -2.00000
v 1.50000 -4.00000 -1.00000
v 1.50000 -5.00000 -1.00000
v 1.50000 -5.00000 -2.00000
v 1.50000 -4.00000 -2.00000
v 1.50000 -3.00000 -1.00000
v 1.50000 -3.00000 -2.00000
v 1.50000 -2.00000 -2.00000
v 1.50000 -1.00000 -2.00000
v 1.50000 0.00000 -1.00000
v 1.50000 -1.00000 -1.00000
v 1.50000 0.00000 -2.00000
v 1.50000 1.00000 -1.00000
v 1.50000 1.00000 -2.00000
v 2.50000 -3.00000 -2.00000
v 2.50000 -3.00000 -1.00000
v 2.50000 -2.00000 -2.00000
v 2.50000 -1.00000 -1.00000
v 2.50000 -1.00000 -2.00000
v 3.50000 -2.00000 -1.00000
v 3.50000 -3.00000 -1.00000
v 3.50000 -3.00000 -2.00000
v 3.50000 -2.00000 -2.00000
v 3.50000 -1.00000 -1.00000
v 3.50000 -1.00000 -2.00000
v -3.50000 -3.00000 0.00000
v -3.50000 -2.00000 0.00000
v -2.50000 -3.00000 0.00000
v -2.50000 -2.00000 0.00000
v -3.50000 -1.00000 0.00000
v -2.50000 -1.00000 0.00000
v -3.50000 0.00000 0.00000
v -2.50000 0.00000 0.00000
v -3.50000 1.00000 0.00000
v -2.50000 1.00000 0.00000
v -3.50000 2.00000 0.00000
v -2.50000 2.00000 0.00000
v -3.50000 3.00000 0.00000
v -2.50000 3.00000 0.00000
v -3.50000 4.00000 0.00000
v -2.50000 4.00000 0.00000
v -3.50000 5.00000 0.00000
v -2.50000 5.00000 0.00000
v -1.50000 -3.00000 0.00000
v -1.50000 -2.00000 0.00000
v -1.50000 -1.00000 0.00000
v -1.50000 0.00000 0.00000
v -1.50000 1.00000 0.00000
v -1.50000 2.00000 0.00000
v -1.50000 3.00000 0.00000
v -1.50000 4.00000 0.00000
v -1.50000 5.00000 0.00000
v -0.50000 -3.00000 0.00000
v -0.50000 -2.00000 0.00000
v -0.50000 -1.00000 0.00000
v -0.50000 -5.00000 0.00000
v -0.50000 -4.00000 0.00000
v 0.50000 -5.00000 0.00000
v 0.50000 -4.00000 0.00000
v 0.50000 -3.00000 0.00000
v 0.50000 -2.00000 0.00000
v 0.50000 -1.00000 0.00000
v -0.50000 0.00000 0.00000
v 0.50000 0.00000 0.00000
v -0.50000 1.00000 0.00000
v 0.50000 1.00000 0.00000
v 1.50000 -4.00000 0.00000
v 1.50000 -5.00000 0.00000
v 1.50000 -3.00000 0.00000
v 1.50000 -2.00000 0.00000
v 1.50000 -1.00000 0.00000
v 1.50000 0.00000 0.00000
v 1.50000 1.00000 0.00000
v 2.50000 -3.00000 0.00000
v 2.50000 -2.00000 0.00000
v 2.50000 -1.00000 0.00000
v 3.50000 -2.00000 0.00000
v 3.50000 -3.00000 0.00000
v 3.50000 -1.00000 0.00000

vt 0.06250 0.50000
vt 0.06250 0.25000
vt 0.12500 0.25000
vt 0.12500 0.50000
vt 0.25000 0.50000
vt 0.25000 0.25000
vt 0.31250 0.25000
vt 0.31250 0.50000

g Matrix_9
usemtl 4_Material
f 1/1/3 2/2/3 3/3/3 4/4/3
f 3/1/6 2/2/6 5/3/6 6/4/6
f 7/1/2 5/2/2 2/3/2 1/4/2
f 8/1/3 1/2/3 4/3/3 9/4/3
f 10/1/2 7/2/2 1/3/2 8/4/2
f 11/5/3 8/6/3 9/7/3 12/8/3
f 13/5/2 10/6/2 8/7/2 11/8/2
f 14/5/3 11/6/3 12/7/3 15/8/3
f 16/5/2 13/6/2 11/7/2 14/8/2
f 17/5/3 14/6/3 15/7/3 18/8/3
f 19/5/2 16/6/2 14/7/2 17/8/2
f 20/5/3 17/6/3 18/7/3 21/8/3
f 22/5/2 19/6/2 17/7/2 20/8/2
f 23/5/3 20/6/3 21/7/3 24/8/3
f 25/5/2 22/6/2 20/7/2 23/8/2
f 26/5/3 23/6/3 24/7/3 27/8/3
f 26/5/5 27/6/5 28/7/5 29/8/5
f 29/5/2 25/6/2 23/7/2 26/8/2
f 6/1/6 5/2/6 30/3/6 31/4/6
f 32/1/2 30/2/2 5/3/2 7/4/2
f 33/1/2 32/2/2 7/3/2 10/4/2
f 34/5/4 35/6/4 33/7/4 36/8/4
f 36/5/2 33/6/2 10/7/2 13/8/2
f 37/5/4 34/6/4 36/7/4 38/8/4
f 38/5/2 36/6/2 13/7/2 16/8/2
f 39/5/4 37/6/4 38/7/4 40/8/4
f 40/5/2 38/6/2 16/7/2 19/8/2
f 41/5/4 39/6/4 40/7/4 42/8/4
f 42/5/2 40/6/2 19/7/2 22/8/2
f 43/5/4 41/6/4 42/7/4 44/8/4
f 44/5/2 42/6/2 22/7/2 25/8/2
f 45/5/4 43/6/4 44/7/4 46/8/4
f 29/5/5 28/6/5 45/7/5 46/8/5
f 46/5/2 44/6/2 25/7/2 29/8/2
f 31/5/6 30/6/6 47/7/6 48/8/6
f 49/5/2 47/6/2 30/7/2 32/8/2
f 33/5/5 35/6/5 50/7/5 51/8/5
f 51/5/2 49/6/2 32/7/2 33/8/2
f 52/5/3 53/6/3 54/7/3 55/8/3
f 54/5/6 53/6/6 56/7/6 57/8/6
f 58/5/2 56/6/2 53/7/2 52/8/2
f 47/5/3 52/6/3 55/7/3 48/8/3
f 59/5/2 58/6/2 52/7/2 47/8/2
f 60/5/2 59/6/2 47/7/2 49/8/2
f 61/5/2 60/6/2 49/7/2 51/8/2
f 62/5/3 51/6/3 50/7/3 63/8/3
f 64/5/2 61/6/2 51/7/2 62/8/2
f 65/5/3 62/6/3 63/7/3 66/8/3
f 65/5/5 66/6/5 67/7/5 68/8/5
f 68/5/2 64/6/2 62/7/2 65/8/2
f 69/5/4 70/6/4 71/7/4 72/8/4
f 57/5/6 56/6/6 71/7/6 70/8/6
f 72/5/2 71/6/2 56/7/2 58/8/2
f 73/5/4 69/6/4 72/7/4 74/8/4
f 74/5/2 72/6/2 58/7/2 59/8/2
f 75/5/2 74/6/2 59/7/2 60/8/2
f 76/5/2 75/6/2 60/7/2 61/8/2
f 77/5/4 78/6/4 76/7/4 79/8/4
f 79/5/2 76/6/2 61/7/2 64/8/2
f 80/5/4 77/6/4 79/7/4 81/8/4
f 68/5/5 67/6/5 80/7/5 81/8/5
f 81/5/2 79/6/2 64/7/2 68/8/2
f 73/5/6 74/6/6 82/7/6 83/8/6
f 84/5/2 82/6/2 74/7/2 75/8/2
f 76/5/5 78/6/5 85/7/5 86/8/5
f 86/5/2 84/6/2 75/7/2 76/8/2
f 87/5/4 88/6/4 89/7/4 90/8/4
f 83/5/6 82/6/6 89/7/6 88/8/6
f 90/5/2 89/6/2 82/7/2 84/8/2
f 91/5/4 87/6/4 90/7/4 92/8/4
f 86/5/5 85/6/5 91/7/5 92/8/5
f 92/5/2 90/6/2 84/7/2 86/8/2
f 4/1/3 3/2/3 93/3/3 94/4/3
f 93/1/6 3/2/6 6/3/6 95/4/6
f 94/1/1 93/2/1 95/3/1 96/4/1
f 9/1/3 4/2/3 94/3/3 97/4/3
f 97/1/1 94/2/1 96/3/1 98/4/1
f 12/5/3 9/6/3 97/7/3 99/8/3
f 99/5/1 97/6/1 98/7/1 100/8/1
f 15/5/3 12/6/3 99/7/3 101/8/3
f 101/5/1 99/6/1 100/7/1 102/8/1
f 18/5/3 15/6/3 101/7/3 103/8/3
f 103/5/1 101/6/1 102/7/1 104/8/1
f 21/5/3 18/6/3 103/7/3 105/8/3
f 105/5/1 103/6/1 104/7/1 106/8/1
f 24/5/3 21/6/3 105/7/3 107/8/3
f 107/5/1 105/6/1 106/7/1 108/8/1
f 27/5/3 24/6/3 107/7/3 109/8/3
f 27/5/5 109/6/5 110/7/5 28/8/5
f 109/5/1 107/6/1 108/7/1 110/8/1
f 95/1/6 6/2/6 31/3/6 111/4/6
f 96/1/1 95/2/1 111/3/1 112/4/1
f 98/1/1 96/2/1 112/3/1 113/4/1
f 114/5/4 113/6/4 35/7/4 34/8/4
f 100/5/1 98/6/1 113/7/1 114/8/1
f 115/5/4 114/6/4 34/7/4 37/8/4
f 102/5/1 100/6/1 114/7/1 115/8/1
f 116/5/4 115/6/4 37/7/4 39/8/4
f 104/5/1 102/6/1 115/7/1 116/8/1
f 117/5/4 116/6/4 39/7/4 41/8/4
f 106/5/1 104/6/1 116/7/1 117/8/1
f 118/5/4 117/6/4 41/7/4 43/8/4
f 108/5/1 106/6/1 117/7/1 118/8/1
f 119/5/4 118/6/4 43/7/4 45/8/4
f 28/5/5 110/6/5 119/7/5 45/8/5
f 110/5/1 108/6/1 118/7/1 119/8/1
f 111/5/6 31/6/6 48/7/6 120/8/6
f 112/5/1 111/6/1 120/7/1 121/8/1
f 35/5/5 113/6/5 122/7/5 50/8/5
f 113/5/1 112/6/1 121/7/1 122/8/1
f 55/5/3 54/6/3 123/7/3 124/8/3
f 123/5/6 54/6/6 57/7/6 125/8/6
f 124/5/1 123/6/1 125/7/1 126/8/1
f 48/5/3 55/6/3 124/7/3 120/8/3
f 120/5/1 124/6/1 126/7/1 127/8/1
f 121/5/1 120/6/1 127/7/1 128/8/1
f 122/5/1 121/6/1 128/7/1 129/8/1
f 63/5/3 50/6/3 122/7/3 130/8/3
f 130/5/1 122/6/1 129/7/1 131/8/1
f 66/5/3 63/6/3 130/7/3 132/8/3
f 66/5/5 132/6/5 133/7/5 67/8/5
f 132/5/1 130/6/1 131/7/1 133/8/1
f 134/5/4 135/6/4 70/7/4 69/8/4
f 125/5/6 57/6/6 70/7/6 135/8/6
f 126/5/1 125/6/1 135/7/1 134/8/1
f 136/5/4 134/6/4 69/7/4 73/8/4
f 127/5/1 126/6/1 134/7/1 136/8/1
f 128/5/1 127/6/1 136/7/1 137/8/1
f 129/5/1 128/6/1 137/7/1 138/8/1
f 139/5/4 138/6/4 78/7/4 77/8/4
f 131/5/1 129/6/1 138/7/1 139/8/1
f 140/5/4 139/6/4 77/7/4 80/8/4
f 67/5/5 133/6/5 140/7/5 80/8/5
f 133/5/1 131/6/1 139/7/1 140/8/1
f 136/5/6 73/6/6 83/7/6 141/8/6
f 137/5/1 136/6/1 141/7/1 142/8/1
f 78/5/5 138/6/5 143/7/5 85/8/5
f 138/5/1 137/6/1 142/7/1 143/8/1
f 144/5/4 145/6/4 88/7/4 87/8/4
f 141/5/6 83/6/6 88/7/6 145/8/6
f 142/5/1 141/6/1 145/7/1 144/8/1
f 146/5/4 144/6/4 87/7/4 91/8/4
f 85/5/5 143/6/5 146/7/5 91/8/5
f 143/5/1 142/6/1 144/7/1 146/8/1
