# This file was created with Minddesk Qubicle 3.0
# Get Qubicle at www.getqubicle.com

mtllib 8.mtl

vn 0.0 0.0 1.0
vn 0.0 0.0 -1.0
vn -1.0 0.0 0.0
vn 1.0 0.0 0.0
vn 0.0 1.0 0.0
vn 0.0 -1.0 0.0

v -3.50000 -4.00000 -2.00000
v -3.50000 -5.00000 -2.00000
v -3.50000 -5.00000 -1.00000
v -3.50000 -4.00000 -1.00000
v -2.50000 -5.00000 -2.00000
v -2.50000 -5.00000 -1.00000
v -2.50000 -4.00000 -2.00000
v -3.50000 -3.00000 -2.00000
v -3.50000 -3.00000 -1.00000
v -2.50000 -3.00000 -2.00000
v -3.50000 -2.00000 -2.00000
v -3.50000 -2.00000 -1.00000
v -2.50000 -2.00000 -2.00000
v -3.50000 -1.00000 -2.00000
v -3.50000 -1.00000 -1.00000
v -2.50000 -1.00000 -2.00000
v -3.50000 0.00000 -2.00000
v -3.50000 0.00000 -1.00000
v -2.50000 0.00000 -2.00000
v -3.50000 1.00000 -2.00000
v -3.50000 1.00000 -1.00000
v -2.50000 1.00000 -2.00000
v -3.50000 2.00000 -2.00000
v -3.50000 2.00000 -1.00000
v -2.50000 2.00000 -2.00000
v -3.50000 3.00000 -2.00000
v -3.50000 3.00000 -1.00000
v -2.50000 3.00000 -2.00000
v -3.50000 4.00000 -2.00000
v -3.50000 4.00000 -1.00000
v -2.50000 4.00000 -2.00000
v -3.50000 5.00000 -2.00000
v -3.50000 5.00000 -1.00000
v -2.50000 5.00000 -1.00000
v -2.50000 5.00000 -2.00000
v -1.50000 -5.00000 -2.00000
v -1.50000 -5.00000 -1.00000
v -1.50000 -4.00000 -2.00000
v -1.50000 -3.00000 -2.00000
v -1.50000 -2.00000 -1.00000
v -1.50000 -3.00000 -1.00000
v -1.50000 -2.00000 -2.00000
v -1.50000 -1.00000 -1.00000
v -1.50000 -1.00000 -2.00000
v -1.50000 0.00000 -2.00000
v -1.50000 1.00000 -2.00000
v -1.50000 2.00000 -1.00000
v -1.50000 1.00000 -1.00000
v -1.50000 2.00000 -2.00000
v -1.50000 3.00000 -1.00000
v -1.50000 3.00000 -2.00000
v -1.50000 4.00000 -2.00000
v -1.50000 5.00000 -1.00000
v -1.50000 5.00000 -2.00000
v -0.50000 -5.00000 -2.00000
v -0.50000 -5.00000 -1.00000
v -0.50000 -4.00000 -2.00000
v -0.50000 -3.00000 -1.00000
v -0.50000 -3.00000 -2.00000
v -0.50000 -1.00000 -2.00000
v -0.50000 -1.00000 -1.00000
v -0.50000 0.00000 -2.00000
v -0.50000 1.00000 -1.00000
v -0.50000 1.00000 -2.00000
v -0.50000 3.00000 -2.00000
v -0.50000 3.00000 -1.00000
v -0.50000 4.00000 -2.00000
v -0.50000 5.00000 -1.00000
v -0.50000 5.00000 -2.00000
v 0.50000 -5.00000 -2.00000
v 0.50000 -5.00000 -1.00000
v 0.50000 -4.00000 -2.00000
v 0.50000 -3.00000 -1.00000
v 0.50000 -3.00000 -2.00000
v 0.50000 -1.00000 -2.00000
v 0.50000 -1.00000 -1.00000
v 0.50000 0.00000 -2.00000
v 0.50000 1.00000 -1.00000
v 0.50000 1.00000 -2.00000
v 0.50000 3.00000 -2.00000
v 0.50000 3.00000 -1.00000
v 0.50000 4.00000 -2.00000
v 0.50000 5.00000 -1.00000
v 0.50000 5.00000 -2.00000
v 1.50000 -5.00000 -2.00000
v 1.50000 -5.00000 -1.00000
v 1.50000 -4.00000 -2.00000
v 1.50000 -3.00000 -1.00000
v 1.50000 -3.00000 -2.00000
v 1.50000 -1.00000 -2.00000
v 1.50000 -1.00000 -1.00000
v 1.50000 0.00000 -2.00000
v 1.50000 1.00000 -1.00000
v 1.50000 1.00000 -2.00000
v 1.50000 3.00000 -2.00000
v 1.50000 3.00000 -1.00000
v 1.50000 4.00000 -2.00000
v 1.50000 5.00000 -1.00000
v 1.50000 5.00000 -2.00000
v 2.50000 -5.00000 -2.00000
v 2.50000 -5.00000 -1.00000
v 2.50000 -4.00000 -2.00000
v 2.50000 -3.00000 -2.00000
v 1.50000 -2.00000 -2.00000
v 1.50000 -2.00000 -1.00000
v 2.50000 -2.00000 -2.00000
v 2.50000 -1.00000 -2.00000
v 2.50000 0.00000 -2.00000
v 2.50000 1.00000 -2.00000
v 1.50000 2.00000 -2.00000
v 1.50000 2.00000 -1.00000
v 2.50000 2.00000 -2.00000
v 2.50000 3.00000 -2.00000
v 2.50000 4.00000 -2.00000
v 2.50000 5.00000 -1.00000
v 2.50000 5.00000 -2.00000
v 3.50000 -4.00000 -1.00000
v 3.50000 -5.00000 -1.00000
v 3.50000 -5.00000 -2.00000
v 3.50000 -4.00000 -2.00000
v 3.50000 -3.00000 -1.00000
v 3.50000 -3.00000 -2.00000
v 3.50000 -2.00000 -1.00000
v 3.50000 -2.00000 -2.00000
v 3.50000 -1.00000 -1.00000
v 3.50000 -1.00000 -2.00000
v 3.50000 0.00000 -1.00000
v 3.50000 0.00000 -2.00000
v 3.50000 1.00000 -1.00000
v 3.50000 1.00000 -2.00000
v 3.50000 2.00000 -1.00000
v 3.50000 2.00000 -2.00000
v 3.50000 3.00000 -1.00000
v 3.50000 3.00000 -2.00000
v 3.50000 4.00000 -1.00000
v 3.50000 4.00000 -2.00000
v 3.50000 5.00000 -1.00000
v 3.50000 5.00000 -2.00000
v -3.50000 -5.00000 0.00000
v -3.50000 -4.00000 0.00000
v -2.50000 -5.00000 0.00000
v -2.50000 -4.00000 0.00000
v -3.50000 -3.00000 0.00000
v -2.50000 -3.00000 0.00000
v -3.50000 -2.00000 0.00000
v -2.50000 -2.00000 0.00000
v -3.50000 -1.00000 0.00000
v -2.50000 -1.00000 0.00000
v -3.50000 0.00000 0.00000
v -2.50000 0.00000 0.00000
v -3.50000 1.00000 0.00000
v -2.50000 1.00000 0.00000
v -3.50000 2.00000 0.00000
v -2.50000 2.00000 0.00000
v -3.50000 3.00000 0.00000
v -2.50000 3.00000 0.00000
v -3.50000 4.00000 0.00000
v -2.50000 4.00000 0.00000
v -3.50000 5.00000 0.00000
v -2.50000 5.00000 0.00000
v -1.50000 -5.00000 0.00000
v -1.50000 -4.00000 0.00000
v -1.50000 -3.00000 0.00000
v -1.50000 -2.00000 0.00000
v -1.50000 -1.00000 0.00000
v -1.50000 0.00000 0.00000
v -1.50000 1.00000 0.00000
v -1.50000 2.00000 0.00000
v -1.50000 3.00000 0.00000
v -1.50000 4.00000 0.00000
v -1.50000 5.00000 0.00000
v -0.50000 -5.00000 0.00000
v -0.50000 -4.00000 0.00000
v -0.50000 -3.00000 0.00000
v -0.50000 -1.00000 0.00000
v -0.50000 0.00000 0.00000
v -0.50000 1.00000 0.00000
v -0.50000 3.00000 0.00000
v -0.50000 4.00000 0.00000
v -0.50000 5.00000 0.00000
v 0.50000 -5.00000 0.00000
v 0.50000 -4.00000 0.00000
v 0.50000 -3.00000 0.00000
v 0.50000 -1.00000 0.00000
v 0.50000 0.00000 0.00000
v 0.50000 1.00000 0.00000
v 0.50000 3.00000 0.00000
v 0.50000 4.00000 0.00000
v 0.50000 5.00000 0.00000
v 1.50000 -5.00000 0.00000
v 1.50000 -4.00000 0.00000
v 1.50000 -3.00000 0.00000
v 1.50000 -1.00000 0.00000
v 1.50000 0.00000 0.00000
v 1.50000 1.00000 0.00000
v 1.50000 3.00000 0.00000
v 1.50000 4.00000 0.00000
v 1.50000 5.00000 0.00000
v 2.50000 -5.00000 0.00000
v 2.50000 -4.00000 0.00000
v 2.50000 -3.00000 0.00000
v 1.50000 -2.00000 0.00000
v 2.50000 -2.00000 0.00000
v 2.50000 -1.00000 0.00000
v 2.50000 0.00000 0.00000
v 2.50000 1.00000 0.00000
v 1.50000 2.00000 0.00000
v 2.50000 2.00000 0.00000
v 2.50000 3.00000 0.00000
v 2.50000 4.00000 0.00000
v 2.50000 5.00000 0.00000
v 3.50000 -4.00000 0.00000
v 3.50000 -5.00000 0.00000
v 3.50000 -3.00000 0.00000
v 3.50000 -2.00000 0.00000
v 3.50000 -1.00000 0.00000
v 3.50000 0.00000 0.00000
v 3.50000 1.00000 0.00000
v 3.50000 2.00000 0.00000
v 3.50000 3.00000 0.00000
v 3.50000 4.00000 0.00000
v 3.50000 5.00000 0.00000

vt 0.25000 0.50000
vt 0.25000 0.25000
vt 0.50000 0.25000
vt 0.50000 0.50000

g Matrix_9
usemtl 8_Material
f 1/1/3 2/2/3 3/3/3 4/4/3
f 3/1/6 2/2/6 5/3/6 6/4/6
f 7/1/2 5/2/2 2/3/2 1/4/2
f 8/1/3 1/2/3 4/3/3 9/4/3
f 10/1/2 7/2/2 1/3/2 8/4/2
f 11/1/3 8/2/3 9/3/3 12/4/3
f 13/1/2 10/2/2 8/3/2 11/4/2
f 14/1/3 11/2/3 12/3/3 15/4/3
f 16/1/2 13/2/2 11/3/2 14/4/2
f 17/1/3 14/2/3 15/3/3 18/4/3
f 19/1/2 16/2/2 14/3/2 17/4/2
f 20/1/3 17/2/3 18/3/3 21/4/3
f 22/1/2 19/2/2 17/3/2 20/4/2
f 23/1/3 20/2/3 21/3/3 24/4/3
f 25/1/2 22/2/2 20/3/2 23/4/2
f 26/1/3 23/2/3 24/3/3 27/4/3
f 28/1/2 25/2/2 23/3/2 26/4/2
f 29/1/3 26/2/3 27/3/3 30/4/3
f 31/1/2 28/2/2 26/3/2 29/4/2
f 32/1/3 29/2/3 30/3/3 33/4/3
f 32/1/5 33/2/5 34/3/5 35/4/5
f 35/1/2 31/2/2 29/3/2 32/4/2
f 6/1/6 5/2/6 36/3/6 37/4/6
f 38/1/2 36/2/2 5/3/2 7/4/2
f 39/1/2 38/2/2 7/3/2 10/4/2
f 40/1/4 41/2/4 39/3/4 42/4/4
f 42/1/2 39/2/2 10/3/2 13/4/2
f 43/1/4 40/2/4 42/3/4 44/4/4
f 44/1/2 42/2/2 13/3/2 16/4/2
f 45/1/2 44/2/2 16/3/2 19/4/2
f 46/1/2 45/2/2 19/3/2 22/4/2
f 47/1/4 48/2/4 46/3/4 49/4/4
f 49/1/2 46/2/2 22/3/2 25/4/2
f 50/1/4 47/2/4 49/3/4 51/4/4
f 51/1/2 49/2/2 25/3/2 28/4/2
f 52/1/2 51/2/2 28/3/2 31/4/2
f 35/1/5 34/2/5 53/3/5 54/4/5
f 54/1/2 52/2/2 31/3/2 35/4/2
f 37/1/6 36/2/6 55/3/6 56/4/6
f 57/1/2 55/2/2 36/3/2 38/4/2
f 39/1/5 41/2/5 58/3/5 59/4/5
f 59/1/2 57/2/2 38/3/2 39/4/2
f 43/1/6 44/2/6 60/3/6 61/4/6
f 62/1/2 60/2/2 44/3/2 45/4/2
f 46/1/5 48/2/5 63/3/5 64/4/5
f 64/1/2 62/2/2 45/3/2 46/4/2
f 50/1/6 51/2/6 65/3/6 66/4/6
f 67/1/2 65/2/2 51/3/2 52/4/2
f 54/1/5 53/2/5 68/3/5 69/4/5
f 69/1/2 67/2/2 52/3/2 54/4/2
f 56/1/6 55/2/6 70/3/6 71/4/6
f 72/1/2 70/2/2 55/3/2 57/4/2
f 59/1/5 58/2/5 73/3/5 74/4/5
f 74/1/2 72/2/2 57/3/2 59/4/2
f 61/1/6 60/2/6 75/3/6 76/4/6
f 77/1/2 75/2/2 60/3/2 62/4/2
f 64/1/5 63/2/5 78/3/5 79/4/5
f 79/1/2 77/2/2 62/3/2 64/4/2
f 66/1/6 65/2/6 80/3/6 81/4/6
f 82/1/2 80/2/2 65/3/2 67/4/2
f 69/1/5 68/2/5 83/3/5 84/4/5
f 84/1/2 82/2/2 67/3/2 69/4/2
f 71/1/6 70/2/6 85/3/6 86/4/6
f 87/1/2 85/2/2 70/3/2 72/4/2
f 74/1/5 73/2/5 88/3/5 89/4/5
f 89/1/2 87/2/2 72/3/2 74/4/2
f 76/1/6 75/2/6 90/3/6 91/4/6
f 92/1/2 90/2/2 75/3/2 77/4/2
f 79/1/5 78/2/5 93/3/5 94/4/5
f 94/1/2 92/2/2 77/3/2 79/4/2
f 81/1/6 80/2/6 95/3/6 96/4/6
f 97/1/2 95/2/2 80/3/2 82/4/2
f 84/1/5 83/2/5 98/3/5 99/4/5
f 99/1/2 97/2/2 82/3/2 84/4/2
f 86/1/6 85/2/6 100/3/6 101/4/6
f 102/1/2 100/2/2 85/3/2 87/4/2
f 103/1/2 102/2/2 87/3/2 89/4/2
f 104/1/3 89/2/3 88/3/3 105/4/3
f 106/1/2 103/2/2 89/3/2 104/4/2
f 90/1/3 104/2/3 105/3/3 91/4/3
f 107/1/2 106/2/2 104/3/2 90/4/2
f 108/1/2 107/2/2 90/3/2 92/4/2
f 109/1/2 108/2/2 92/3/2 94/4/2
f 110/1/3 94/2/3 93/3/3 111/4/3
f 112/1/2 109/2/2 94/3/2 110/4/2
f 95/1/3 110/2/3 111/3/3 96/4/3
f 113/1/2 112/2/2 110/3/2 95/4/2
f 114/1/2 113/2/2 95/3/2 97/4/2
f 99/1/5 98/2/5 115/3/5 116/4/5
f 116/1/2 114/2/2 97/3/2 99/4/2
f 117/1/4 118/2/4 119/3/4 120/4/4
f 101/1/6 100/2/6 119/3/6 118/4/6
f 120/1/2 119/2/2 100/3/2 102/4/2
f 121/1/4 117/2/4 120/3/4 122/4/4
f 122/1/2 120/2/2 102/3/2 103/4/2
f 123/1/4 121/2/4 122/3/4 124/4/4
f 124/1/2 122/2/2 103/3/2 106/4/2
f 125/1/4 123/2/4 124/3/4 126/4/4
f 126/1/2 124/2/2 106/3/2 107/4/2
f 127/1/4 125/2/4 126/3/4 128/4/4
f 128/1/2 126/2/2 107/3/2 108/4/2
f 129/1/4 127/2/4 128/3/4 130/4/4
f 130/1/2 128/2/2 108/3/2 109/4/2
f 131/1/4 129/2/4 130/3/4 132/4/4
f 132/1/2 130/2/2 109/3/2 112/4/2
f 133/1/4 131/2/4 132/3/4 134/4/4
f 134/1/2 132/2/2 112/3/2 113/4/2
f 135/1/4 133/2/4 134/3/4 136/4/4
f 136/1/2 134/2/2 113/3/2 114/4/2
f 137/1/4 135/2/4 136/3/4 138/4/4
f 116/1/5 115/2/5 137/3/5 138/4/5
f 138/1/2 136/2/2 114/3/2 116/4/2
f 4/1/3 3/2/3 139/3/3 140/4/3
f 139/1/6 3/2/6 6/3/6 141/4/6
f 140/1/1 139/2/1 141/3/1 142/4/1
f 9/1/3 4/2/3 140/3/3 143/4/3
f 143/1/1 140/2/1 142/3/1 144/4/1
f 12/1/3 9/2/3 143/3/3 145/4/3
f 145/1/1 143/2/1 144/3/1 146/4/1
f 15/1/3 12/2/3 145/3/3 147/4/3
f 147/1/1 145/2/1 146/3/1 148/4/1
f 18/1/3 15/2/3 147/3/3 149/4/3
f 149/1/1 147/2/1 148/3/1 150/4/1
f 21/1/3 18/2/3 149/3/3 151/4/3
f 151/1/1 149/2/1 150/3/1 152/4/1
f 24/1/3 21/2/3 151/3/3 153/4/3
f 153/1/1 151/2/1 152/3/1 154/4/1
f 27/1/3 24/2/3 153/3/3 155/4/3
f 155/1/1 153/2/1 154/3/1 156/4/1
f 30/1/3 27/2/3 155/3/3 157/4/3
f 157/1/1 155/2/1 156/3/1 158/4/1
f 33/1/3 30/2/3 157/3/3 159/4/3
f 33/1/5 159/2/5 160/3/5 34/4/5
f 159/1/1 157/2/1 158/3/1 160/4/1
f 141/1/6 6/2/6 37/3/6 161/4/6
f 142/1/1 141/2/1 161/3/1 162/4/1
f 144/1/1 142/2/1 162/3/1 163/4/1
f 164/1/4 163/2/4 41/3/4 40/4/4
f 146/1/1 144/2/1 163/3/1 164/4/1
f 165/1/4 164/2/4 40/3/4 43/4/4
f 148/1/1 146/2/1 164/3/1 165/4/1
f 150/1/1 148/2/1 165/3/1 166/4/1
f 152/1/1 150/2/1 166/3/1 167/4/1
f 168/1/4 167/2/4 48/3/4 47/4/4
f 154/1/1 152/2/1 167/3/1 168/4/1
f 169/1/4 168/2/4 47/3/4 50/4/4
f 156/1/1 154/2/1 168/3/1 169/4/1
f 158/1/1 156/2/1 169/3/1 170/4/1
f 34/1/5 160/2/5 171/3/5 53/4/5
f 160/1/1 158/2/1 170/3/1 171/4/1
f 161/1/6 37/2/6 56/3/6 172/4/6
f 162/1/1 161/2/1 172/3/1 173/4/1
f 41/1/5 163/2/5 174/3/5 58/4/5
f 163/1/1 162/2/1 173/3/1 174/4/1
f 165/1/6 43/2/6 61/3/6 175/4/6
f 166/1/1 165/2/1 175/3/1 176/4/1
f 48/1/5 167/2/5 177/3/5 63/4/5
f 167/1/1 166/2/1 176/3/1 177/4/1
f 169/1/6 50/2/6 66/3/6 178/4/6
f 170/1/1 169/2/1 178/3/1 179/4/1
f 53/1/5 171/2/5 180/3/5 68/4/5
f 171/1/1 170/2/1 179/3/1 180/4/1
f 172/1/6 56/2/6 71/3/6 181/4/6
f 173/1/1 172/2/1 181/3/1 182/4/1
f 58/1/5 174/2/5 183/3/5 73/4/5
f 174/1/1 173/2/1 182/3/1 183/4/1
f 175/1/6 61/2/6 76/3/6 184/4/6
f 176/1/1 175/2/1 184/3/1 185/4/1
f 63/1/5 177/2/5 186/3/5 78/4/5
f 177/1/1 176/2/1 185/3/1 186/4/1
f 178/1/6 66/2/6 81/3/6 187/4/6
f 179/1/1 178/2/1 187/3/1 188/4/1
f 68/1/5 180/2/5 189/3/5 83/4/5
f 180/1/1 179/2/1 188/3/1 189/4/1
f 181/1/6 71/2/6 86/3/6 190/4/6
f 182/1/1 181/2/1 190/3/1 191/4/1
f 73/1/5 183/2/5 192/3/5 88/4/5
f 183/1/1 182/2/1 191/3/1 192/4/1
f 184/1/6 76/2/6 91/3/6 193/4/6
f 185/1/1 184/2/1 193/3/1 194/4/1
f 78/1/5 186/2/5 195/3/5 93/4/5
f 186/1/1 185/2/1 194/3/1 195/4/1
f 187/1/6 81/2/6 96/3/6 196/4/6
f 188/1/1 187/2/1 196/3/1 197/4/1
f 83/1/5 189/2/5 198/3/5 98/4/5
f 189/1/1 188/2/1 197/3/1 198/4/1
f 190/1/6 86/2/6 101/3/6 199/4/6
f 191/1/1 190/2/1 199/3/1 200/4/1
f 192/1/1 191/2/1 200/3/1 201/4/1
f 105/1/3 88/2/3 192/3/3 202/4/3
f 202/1/1 192/2/1 201/3/1 203/4/1
f 91/1/3 105/2/3 202/3/3 193/4/3
f 193/1/1 202/2/1 203/3/1 204/4/1
f 194/1/1 193/2/1 204/3/1 205/4/1
f 195/1/1 194/2/1 205/3/1 206/4/1
f 111/1/3 93/2/3 195/3/3 207/4/3
f 207/1/1 195/2/1 206/3/1 208/4/1
f 96/1/3 111/2/3 207/3/3 196/4/3
f 196/1/1 207/2/1 208/3/1 209/4/1
f 197/1/1 196/2/1 209/3/1 210/4/1
f 98/1/5 198/2/5 211/3/5 115/4/5
f 198/1/1 197/2/1 210/3/1 211/4/1
f 212/1/4 213/2/4 118/3/4 117/4/4
f 199/1/6 101/2/6 118/3/6 213/4/6
f 200/1/1 199/2/1 213/3/1 212/4/1
f 214/1/4 212/2/4 117/3/4 121/4/4
f 201/1/1 200/2/1 212/3/1 214/4/1
f 215/1/4 214/2/4 121/3/4 123/4/4
f 203/1/1 201/2/1 214/3/1 215/4/1
f 216/1/4 215/2/4 123/3/4 125/4/4
f 204/1/1 203/2/1 215/3/1 216/4/1
f 217/1/4 216/2/4 125/3/4 127/4/4
f 205/1/1 204/2/1 216/3/1 217/4/1
f 218/1/4 217/2/4 127/3/4 129/4/4
f 206/1/1 205/2/1 217/3/1 218/4/1
f 219/1/4 218/2/4 129/3/4 131/4/4
f 208/1/1 206/2/1 218/3/1 219/4/1
f 220/1/4 219/2/4 131/3/4 133/4/4
f 209/1/1 208/2/1 219/3/1 220/4/1
f 221/1/4 220/2/4 133/3/4 135/4/4
f 210/1/1 209/2/1 220/3/1 221/4/1
f 222/1/4 221/2/4 135/3/4 137/4/4
f 115/1/5 211/2/5 222/3/5 137/4/5
f 211/1/1 210/2/1 221/3/1 222/4/1
