# This file was created with Minddesk Qubicle 3.0
# Get Qubicle at www.getqubicle.com

mtllib 3.mtl

vn 0.0 0.0 1.0
vn 0.0 0.0 -1.0
vn -1.0 0.0 0.0
vn 1.0 0.0 0.0
vn 0.0 1.0 0.0
vn 0.0 -1.0 0.0

v -3.50000 -4.00000 -2.00000
v -3.50000 -5.00000 -2.00000
v -3.50000 -5.00000 -1.00000
v -3.50000 -4.00000 -1.00000
v -2.50000 -5.00000 -2.00000
v -2.50000 -5.00000 -1.00000
v -2.50000 -4.00000 -2.00000
v -3.50000 -3.00000 -2.00000
v -3.50000 -3.00000 -1.00000
v -2.50000 -3.00000 -1.00000
v -2.50000 -3.00000 -2.00000
v -3.50000 4.00000 -2.00000
v -3.50000 3.00000 -2.00000
v -3.50000 3.00000 -1.00000
v -3.50000 4.00000 -1.00000
v -2.50000 3.00000 -2.00000
v -2.50000 3.00000 -1.00000
v -2.50000 4.00000 -2.00000
v -3.50000 5.00000 -2.00000
v -3.50000 5.00000 -1.00000
v -2.50000 5.00000 -1.00000
v -2.50000 5.00000 -2.00000
v -1.50000 -5.00000 -2.00000
v -1.50000 -5.00000 -1.00000
v -1.50000 -4.00000 -2.00000
v -1.50000 -3.00000 -1.00000
v -1.50000 -3.00000 -2.00000
v -1.50000 3.00000 -2.00000
v -1.50000 3.00000 -1.00000
v -1.50000 4.00000 -2.00000
v -1.50000 5.00000 -1.00000
v -1.50000 5.00000 -2.00000
v -0.50000 -5.00000 -2.00000
v -0.50000 -5.00000 -1.00000
v -0.50000 -4.00000 -2.00000
v -0.50000 -3.00000 -1.00000
v -0.50000 -3.00000 -2.00000
v -0.50000 3.00000 -2.00000
v -0.50000 3.00000 -1.00000
v -0.50000 4.00000 -2.00000
v -0.50000 5.00000 -1.00000
v -0.50000 5.00000 -2.00000
v 0.50000 -5.00000 -2.00000
v 0.50000 -5.00000 -1.00000
v 0.50000 -4.00000 -2.00000
v 0.50000 -3.00000 -1.00000
v 0.50000 -3.00000 -2.00000
v -0.50000 0.00000 -2.00000
v -0.50000 -1.00000 -2.00000
v -0.50000 -1.00000 -1.00000
v -0.50000 0.00000 -1.00000
v 0.50000 -1.00000 -2.00000
v 0.50000 -1.00000 -1.00000
v 0.50000 0.00000 -2.00000
v -0.50000 1.00000 -2.00000
v -0.50000 1.00000 -1.00000
v 0.50000 1.00000 -1.00000
v 0.50000 1.00000 -2.00000
v 0.50000 3.00000 -2.00000
v 0.50000 3.00000 -1.00000
v 0.50000 4.00000 -2.00000
v 0.50000 5.00000 -1.00000
v 0.50000 5.00000 -2.00000
v 1.50000 -5.00000 -2.00000
v 1.50000 -5.00000 -1.00000
v 1.50000 -4.00000 -2.00000
v 1.50000 -3.00000 -1.00000
v 1.50000 -3.00000 -2.00000
v 1.50000 -1.00000 -2.00000
v 1.50000 -1.00000 -1.00000
v 1.50000 0.00000 -2.00000
v 1.50000 1.00000 -1.00000
v 1.50000 1.00000 -2.00000
v 1.50000 3.00000 -2.00000
v 1.50000 3.00000 -1.00000
v 1.50000 4.00000 -2.00000
v 1.50000 5.00000 -1.00000
v 1.50000 5.00000 -2.00000
v 2.50000 -5.00000 -2.00000
v 2.50000 -5.00000 -1.00000
v 2.50000 -4.00000 -2.00000
v 2.50000 -3.00000 -2.00000
v 1.50000 -2.00000 -2.00000
v 1.50000 -2.00000 -1.00000
v 2.50000 -2.00000 -2.00000
v 2.50000 -1.00000 -2.00000
v 2.50000 0.00000 -2.00000
v 2.50000 1.00000 -2.00000
v 1.50000 2.00000 -2.00000
v 1.50000 2.00000 -1.00000
v 2.50000 2.00000 -2.00000
v 2.50000 3.00000 -2.00000
v 2.50000 4.00000 -2.00000
v 2.50000 5.00000 -1.00000
v 2.50000 5.00000 -2.00000
v 3.50000 -4.00000 -1.00000
v 3.50000 -5.00000 -1.00000
v 3.50000 -5.00000 -2.00000
v 3.50000 -4.00000 -2.00000
v 3.50000 -3.00000 -1.00000
v 3.50000 -3.00000 -2.00000
v 3.50000 -2.00000 -1.00000
v 3.50000 -2.00000 -2.00000
v 3.50000 -1.00000 -1.00000
v 3.50000 -1.00000 -2.00000
v 3.50000 0.00000 -1.00000
v 3.50000 0.00000 -2.00000
v 3.50000 1.00000 -1.00000
v 3.50000 1.00000 -2.00000
v 3.50000 2.00000 -1.00000
v 3.50000 2.00000 -2.00000
v 3.50000 3.00000 -1.00000
v 3.50000 3.00000 -2.00000
v 3.50000 4.00000 -1.00000
v 3.50000 4.00000 -2.00000
v 3.50000 5.00000 -1.00000
v 3.50000 5.00000 -2.00000
v -3.50000 -5.00000 0.00000
v -3.50000 -4.00000 0.00000
v -2.50000 -5.00000 0.00000
v -2.50000 -4.00000 0.00000
v -3.50000 -3.00000 0.00000
v -2.50000 -3.00000 0.00000
v -3.50000 3.00000 0.00000
v -3.50000 4.00000 0.00000
v -2.50000 3.00000 0.00000
v -2.50000 4.00000 0.00000
v -3.50000 5.00000 0.00000
v -2.50000 5.00000 0.00000
v -1.50000 -5.00000 0.00000
v -1.50000 -4.00000 0.00000
v -1.50000 -3.00000 0.00000
v -1.50000 3.00000 0.00000
v -1.50000 4.00000 0.00000
v -1.50000 5.00000 0.00000
v -0.50000 -5.00000 0.00000
v -0.50000 -4.00000 0.00000
v -0.50000 -3.00000 0.00000
v -0.50000 3.00000 0.00000
v -0.50000 4.00000 0.00000
v -0.50000 5.00000 0.00000
v 0.50000 -5.00000 0.00000
v 0.50000 -4.00000 0.00000
v 0.50000 -3.00000 0.00000
v -0.50000 -1.00000 0.00000
v -0.50000 0.00000 0.00000
v 0.50000 -1.00000 0.00000
v 0.50000 0.00000 0.00000
v -0.50000 1.00000 0.00000
v 0.50000 1.00000 0.00000
v 0.50000 3.00000 0.00000
v 0.50000 4.00000 0.00000
v 0.50000 5.00000 0.00000
v 1.50000 -5.00000 0.00000
v 1.50000 -4.00000 0.00000
v 1.50000 -3.00000 0.00000
v 1.50000 -1.00000 0.00000
v 1.50000 0.00000 0.00000
v 1.50000 1.00000 0.00000
v 1.50000 3.00000 0.00000
v 1.50000 4.00000 0.00000
v 1.50000 5.00000 0.00000
v 2.50000 -5.00000 0.00000
v 2.50000 -4.00000 0.00000
v 2.50000 -3.00000 0.00000
v 1.50000 -2.00000 0.00000
v 2.50000 -2.00000 0.00000
v 2.50000 -1.00000 0.00000
v 2.50000 0.00000 0.00000
v 2.50000 1.00000 0.00000
v 1.50000 2.00000 0.00000
v 2.50000 2.00000 0.00000
v 2.50000 3.00000 0.00000
v 2.50000 4.00000 0.00000
v 2.50000 5.00000 0.00000
v 3.50000 -4.00000 0.00000
v 3.50000 -5.00000 0.00000
v 3.50000 -3.00000 0.00000
v 3.50000 -2.00000 0.00000
v 3.50000 -1.00000 0.00000
v 3.50000 0.00000 0.00000
v 3.50000 1.00000 0.00000
v 3.50000 2.00000 0.00000
v 3.50000 3.00000 0.00000
v 3.50000 4.00000 0.00000
v 3.50000 5.00000 0.00000

vt 0.06250 0.50000
vt 0.06250 0.25000
vt 0.12500 0.25000
vt 0.12500 0.50000
vt 0.25000 0.50000
vt 0.25000 0.25000
vt 0.31250 0.25000
vt 0.31250 0.50000

g Matrix_9
usemtl 3_Material
f 1/1/3 2/2/3 3/3/3 4/4/3
f 3/1/6 2/2/6 5/3/6 6/4/6
f 7/1/2 5/2/2 2/3/2 1/4/2
f 8/1/3 1/2/3 4/3/3 9/4/3
f 8/1/5 9/2/5 10/3/5 11/4/5
f 11/1/2 7/2/2 1/3/2 8/4/2
f 12/5/3 13/6/3 14/7/3 15/8/3
f 14/5/6 13/6/6 16/7/6 17/8/6
f 18/5/2 16/6/2 13/7/2 12/8/2
f 19/5/3 12/6/3 15/7/3 20/8/3
f 19/5/5 20/6/5 21/7/5 22/8/5
f 22/5/2 18/6/2 12/7/2 19/8/2
f 6/1/6 5/2/6 23/3/6 24/4/6
f 25/1/2 23/2/2 5/3/2 7/4/2
f 11/1/5 10/2/5 26/3/5 27/4/5
f 27/1/2 25/2/2 7/3/2 11/4/2
f 17/5/6 16/6/6 28/7/6 29/8/6
f 30/5/2 28/6/2 16/7/2 18/8/2
f 22/5/5 21/6/5 31/7/5 32/8/5
f 32/5/2 30/6/2 18/7/2 22/8/2
f 24/5/6 23/6/6 33/7/6 34/8/6
f 35/5/2 33/6/2 23/7/2 25/8/2
f 27/5/5 26/6/5 36/7/5 37/8/5
f 37/5/2 35/6/2 25/7/2 27/8/2
f 29/5/6 28/6/6 38/7/6 39/8/6
f 40/5/2 38/6/2 28/7/2 30/8/2
f 32/5/5 31/6/5 41/7/5 42/8/5
f 42/5/2 40/6/2 30/7/2 32/8/2
f 34/5/6 33/6/6 43/7/6 44/8/6
f 45/5/2 43/6/2 33/7/2 35/8/2
f 37/5/5 36/6/5 46/7/5 47/8/5
f 47/5/2 45/6/2 35/7/2 37/8/2
f 48/5/3 49/6/3 50/7/3 51/8/3
f 50/5/6 49/6/6 52/7/6 53/8/6
f 54/5/2 52/6/2 49/7/2 48/8/2
f 55/5/3 48/6/3 51/7/3 56/8/3
f 55/5/5 56/6/5 57/7/5 58/8/5
f 58/5/2 54/6/2 48/7/2 55/8/2
f 39/5/6 38/6/6 59/7/6 60/8/6
f 61/5/2 59/6/2 38/7/2 40/8/2
f 42/5/5 41/6/5 62/7/5 63/8/5
f 63/5/2 61/6/2 40/7/2 42/8/2
f 44/5/6 43/6/6 64/7/6 65/8/6
f 66/5/2 64/6/2 43/7/2 45/8/2
f 47/5/5 46/6/5 67/7/5 68/8/5
f 68/5/2 66/6/2 45/7/2 47/8/2
f 53/5/6 52/6/6 69/7/6 70/8/6
f 71/5/2 69/6/2 52/7/2 54/8/2
f 58/5/5 57/6/5 72/7/5 73/8/5
f 73/5/2 71/6/2 54/7/2 58/8/2
f 60/5/6 59/6/6 74/7/6 75/8/6
f 76/5/2 74/6/2 59/7/2 61/8/2
f 63/5/5 62/6/5 77/7/5 78/8/5
f 78/5/2 76/6/2 61/7/2 63/8/2
f 65/5/6 64/6/6 79/7/6 80/8/6
f 81/5/2 79/6/2 64/7/2 66/8/2
f 82/5/2 81/6/2 66/7/2 68/8/2
f 83/5/3 68/6/3 67/7/3 84/8/3
f 85/5/2 82/6/2 68/7/2 83/8/2
f 69/5/3 83/6/3 84/7/3 70/8/3
f 86/5/2 85/6/2 83/7/2 69/8/2
f 87/5/2 86/6/2 69/7/2 71/8/2
f 88/5/2 87/6/2 71/7/2 73/8/2
f 89/5/3 73/6/3 72/7/3 90/8/3
f 91/5/2 88/6/2 73/7/2 89/8/2
f 74/5/3 89/6/3 90/7/3 75/8/3
f 92/5/2 91/6/2 89/7/2 74/8/2
f 93/5/2 92/6/2 74/7/2 76/8/2
f 78/5/5 77/6/5 94/7/5 95/8/5
f 95/5/2 93/6/2 76/7/2 78/8/2
f 96/5/4 97/6/4 98/7/4 99/8/4
f 80/5/6 79/6/6 98/7/6 97/8/6
f 99/5/2 98/6/2 79/7/2 81/8/2
f 100/5/4 96/6/4 99/7/4 101/8/4
f 101/5/2 99/6/2 81/7/2 82/8/2
f 102/5/4 100/6/4 101/7/4 103/8/4
f 103/5/2 101/6/2 82/7/2 85/8/2
f 104/5/4 102/6/4 103/7/4 105/8/4
f 105/5/2 103/6/2 85/7/2 86/8/2
f 106/5/4 104/6/4 105/7/4 107/8/4
f 107/5/2 105/6/2 86/7/2 87/8/2
f 108/5/4 106/6/4 107/7/4 109/8/4
f 109/5/2 107/6/2 87/7/2 88/8/2
f 110/5/4 108/6/4 109/7/4 111/8/4
f 111/5/2 109/6/2 88/7/2 91/8/2
f 112/5/4 110/6/4 111/7/4 113/8/4
f 113/5/2 111/6/2 91/7/2 92/8/2
f 114/5/4 112/6/4 113/7/4 115/8/4
f 115/5/2 113/6/2 92/7/2 93/8/2
f 116/5/4 114/6/4 115/7/4 117/8/4
f 95/5/5 94/6/5 116/7/5 117/8/5
f 117/5/2 115/6/2 93/7/2 95/8/2
f 4/1/3 3/2/3 118/3/3 119/4/3
f 118/1/6 3/2/6 6/3/6 120/4/6
f 119/1/1 118/2/1 120/3/1 121/4/1
f 9/1/3 4/2/3 119/3/3 122/4/3
f 9/1/5 122/2/5 123/3/5 10/4/5
f 122/1/1 119/2/1 121/3/1 123/4/1
f 15/5/3 14/6/3 124/7/3 125/8/3
f 124/5/6 14/6/6 17/7/6 126/8/6
f 125/5/1 124/6/1 126/7/1 127/8/1
f 20/5/3 15/6/3 125/7/3 128/8/3
f 20/5/5 128/6/5 129/7/5 21/8/5
f 128/5/1 125/6/1 127/7/1 129/8/1
f 120/1/6 6/2/6 24/3/6 130/4/6
f 121/1/1 120/2/1 130/3/1 131/4/1
f 10/1/5 123/2/5 132/3/5 26/4/5
f 123/1/1 121/2/1 131/3/1 132/4/1
f 126/5/6 17/6/6 29/7/6 133/8/6
f 127/5/1 126/6/1 133/7/1 134/8/1
f 21/5/5 129/6/5 135/7/5 31/8/5
f 129/5/1 127/6/1 134/7/1 135/8/1
f 130/5/6 24/6/6 34/7/6 136/8/6
f 131/5/1 130/6/1 136/7/1 137/8/1
f 26/5/5 132/6/5 138/7/5 36/8/5
f 132/5/1 131/6/1 137/7/1 138/8/1
f 133/5/6 29/6/6 39/7/6 139/8/6
f 134/5/1 133/6/1 139/7/1 140/8/1
f 31/5/5 135/6/5 141/7/5 41/8/5
f 135/5/1 134/6/1 140/7/1 141/8/1
f 136/5/6 34/6/6 44/7/6 142/8/6
f 137/5/1 136/6/1 142/7/1 143/8/1
f 36/5/5 138/6/5 144/7/5 46/8/5
f 138/5/1 137/6/1 143/7/1 144/8/1
f 51/5/3 50/6/3 145/7/3 146/8/3
f 145/5/6 50/6/6 53/7/6 147/8/6
f 146/5/1 145/6/1 147/7/1 148/8/1
f 56/5/3 51/6/3 146/7/3 149/8/3
f 56/5/5 149/6/5 150/7/5 57/8/5
f 149/5/1 146/6/1 148/7/1 150/8/1
f 139/5/6 39/6/6 60/7/6 151/8/6
f 140/5/1 139/6/1 151/7/1 152/8/1
f 41/5/5 141/6/5 153/7/5 62/8/5
f 141/5/1 140/6/1 152/7/1 153/8/1
f 142/5/6 44/6/6 65/7/6 154/8/6
f 143/5/1 142/6/1 154/7/1 155/8/1
f 46/5/5 144/6/5 156/7/5 67/8/5
f 144/5/1 143/6/1 155/7/1 156/8/1
f 147/5/6 53/6/6 70/7/6 157/8/6
f 148/5/1 147/6/1 157/7/1 158/8/1
f 57/5/5 150/6/5 159/7/5 72/8/5
f 150/5/1 148/6/1 158/7/1 159/8/1
f 151/5/6 60/6/6 75/7/6 160/8/6
f 152/5/1 151/6/1 160/7/1 161/8/1
f 62/5/5 153/6/5 162/7/5 77/8/5
f 153/5/1 152/6/1 161/7/1 162/8/1
f 154/5/6 65/6/6 80/7/6 163/8/6
f 155/5/1 154/6/1 163/7/1 164/8/1
f 156/5/1 155/6/1 164/7/1 165/8/1
f 84/5/3 67/6/3 156/7/3 166/8/3
f 166/5/1 156/6/1 165/7/1 167/8/1
f 70/5/3 84/6/3 166/7/3 157/8/3
f 157/5/1 166/6/1 167/7/1 168/8/1
f 158/5/1 157/6/1 168/7/1 169/8/1
f 159/5/1 158/6/1 169/7/1 170/8/1
f 90/5/3 72/6/3 159/7/3 171/8/3
f 171/5/1 159/6/1 170/7/1 172/8/1
f 75/5/3 90/6/3 171/7/3 160/8/3
f 160/5/1 171/6/1 172/7/1 173/8/1
f 161/5/1 160/6/1 173/7/1 174/8/1
f 77/5/5 162/6/5 175/7/5 94/8/5
f 162/5/1 161/6/1 174/7/1 175/8/1
f 176/5/4 177/6/4 97/7/4 96/8/4
f 163/5/6 80/6/6 97/7/6 177/8/6
f 164/5/1 163/6/1 177/7/1 176/8/1
f 178/5/4 176/6/4 96/7/4 100/8/4
f 165/5/1 164/6/1 176/7/1 178/8/1
f 179/5/4 178/6/4 100/7/4 102/8/4
f 167/5/1 165/6/1 178/7/1 179/8/1
f 180/5/4 179/6/4 102/7/4 104/8/4
f 168/5/1 167/6/1 179/7/1 180/8/1
f 181/5/4 180/6/4 104/7/4 106/8/4
f 169/5/1 168/6/1 180/7/1 181/8/1
f 182/5/4 181/6/4 106/7/4 108/8/4
f 170/5/1 169/6/1 181/7/1 182/8/1
f 183/5/4 182/6/4 108/7/4 110/8/4
f 172/5/1 170/6/1 182/7/1 183/8/1
f 184/5/4 183/6/4 110/7/4 112/8/4
f 173/5/1 172/6/1 183/7/1 184/8/1
f 185/5/4 184/6/4 112/7/4 114/8/4
f 174/5/1 173/6/1 184/7/1 185/8/1
f 186/5/4 185/6/4 114/7/4 116/8/4
f 94/5/5 175/6/5 186/7/5 116/8/5
f 175/5/1 174/6/1 185/7/1 186/8/1
