# This file was created with Minddesk Qubicle 3.0
# Get Qubicle at www.getqubicle.com

mtllib 6.mtl

vn 0.0 0.0 1.0
vn 0.0 0.0 -1.0
vn -1.0 0.0 0.0
vn 1.0 0.0 0.0
vn 0.0 1.0 0.0
vn 0.0 -1.0 0.0

v -3.50000 -4.00000 -2.00000
v -3.50000 -5.00000 -2.00000
v -3.50000 -5.00000 -1.00000
v -3.50000 -4.00000 -1.00000
v -2.50000 -5.00000 -2.00000
v -2.50000 -5.00000 -1.00000
v -2.50000 -4.00000 -2.00000
v -3.50000 -3.00000 -2.00000
v -3.50000 -3.00000 -1.00000
v -2.50000 -3.00000 -2.00000
v -3.50000 -2.00000 -2.00000
v -3.50000 -2.00000 -1.00000
v -2.50000 -2.00000 -2.00000
v -3.50000 -1.00000 -2.00000
v -3.50000 -1.00000 -1.00000
v -2.50000 -1.00000 -2.00000
v -3.50000 0.00000 -2.00000
v -3.50000 0.00000 -1.00000
v -2.50000 0.00000 -2.00000
v -3.50000 1.00000 -2.00000
v -3.50000 1.00000 -1.00000
v -2.50000 1.00000 -2.00000
v -3.50000 2.00000 -2.00000
v -3.50000 2.00000 -1.00000
v -2.50000 2.00000 -2.00000
v -3.50000 3.00000 -2.00000
v -3.50000 3.00000 -1.00000
v -2.50000 3.00000 -2.00000
v -3.50000 4.00000 -2.00000
v -3.50000 4.00000 -1.00000
v -2.50000 4.00000 -2.00000
v -3.50000 5.00000 -2.00000
v -3.50000 5.00000 -1.00000
v -2.50000 5.00000 -1.00000
v -2.50000 5.00000 -2.00000
v -1.50000 -5.00000 -2.00000
v -1.50000 -5.00000 -1.00000
v -1.50000 -4.00000 -2.00000
v -1.50000 -3.00000 -2.00000
v -1.50000 -2.00000 -1.00000
v -1.50000 -3.00000 -1.00000
v -1.50000 -2.00000 -2.00000
v -1.50000 -1.00000 -1.00000
v -1.50000 -1.00000 -2.00000
v -1.50000 0.00000 -2.00000
v -1.50000 1.00000 -2.00000
v -1.50000 2.00000 -1.00000
v -1.50000 1.00000 -1.00000
v -1.50000 2.00000 -2.00000
v -1.50000 3.00000 -1.00000
v -1.50000 3.00000 -2.00000
v -1.50000 4.00000 -1.00000
v -1.50000 4.00000 -2.00000
v -1.50000 5.00000 -1.00000
v -1.50000 5.00000 -2.00000
v -0.50000 -5.00000 -2.00000
v -0.50000 -5.00000 -1.00000
v -0.50000 -4.00000 -2.00000
v -0.50000 -3.00000 -1.00000
v -0.50000 -3.00000 -2.00000
v -0.50000 -1.00000 -2.00000
v -0.50000 -1.00000 -1.00000
v -0.50000 0.00000 -2.00000
v -0.50000 1.00000 -1.00000
v -0.50000 1.00000 -2.00000
v 0.50000 -5.00000 -2.00000
v 0.50000 -5.00000 -1.00000
v 0.50000 -4.00000 -2.00000
v 0.50000 -3.00000 -1.00000
v 0.50000 -3.00000 -2.00000
v 0.50000 -1.00000 -2.00000
v 0.50000 -1.00000 -1.00000
v 0.50000 0.00000 -2.00000
v 0.50000 1.00000 -1.00000
v 0.50000 1.00000 -2.00000
v 1.50000 -5.00000 -2.00000
v 1.50000 -5.00000 -1.00000
v 1.50000 -4.00000 -2.00000
v 1.50000 -3.00000 -1.00000
v 1.50000 -3.00000 -2.00000
v 1.50000 -1.00000 -2.00000
v 1.50000 -1.00000 -1.00000
v 1.50000 0.00000 -2.00000
v 1.50000 1.00000 -1.00000
v 1.50000 1.00000 -2.00000
v 2.50000 -5.00000 -2.00000
v 2.50000 -5.00000 -1.00000
v 2.50000 -4.00000 -2.00000
v 2.50000 -3.00000 -2.00000
v 1.50000 -2.00000 -2.00000
v 1.50000 -2.00000 -1.00000
v 2.50000 -2.00000 -2.00000
v 2.50000 -1.00000 -2.00000
v 2.50000 0.00000 -2.00000
v 2.50000 1.00000 -1.00000
v 2.50000 1.00000 -2.00000
v 3.50000 -4.00000 -1.00000
v 3.50000 -5.00000 -1.00000
v 3.50000 -5.00000 -2.00000
v 3.50000 -4.00000 -2.00000
v 3.50000 -3.00000 -1.00000
v 3.50000 -3.00000 -2.00000
v 3.50000 -2.00000 -1.00000
v 3.50000 -2.00000 -2.00000
v 3.50000 -1.00000 -1.00000
v 3.50000 -1.00000 -2.00000
v 3.50000 0.00000 -1.00000
v 3.50000 0.00000 -2.00000
v 3.50000 1.00000 -1.00000
v 3.50000 1.00000 -2.00000
v -3.50000 -5.00000 0.00000
v -3.50000 -4.00000 0.00000
v -2.50000 -5.00000 0.00000
v -2.50000 -4.00000 0.00000
v -3.50000 -3.00000 0.00000
v -2.50000 -3.00000 0.00000
v -3.50000 -2.00000 0.00000
v -2.50000 -2.00000 0.00000
v -3.50000 -1.00000 0.00000
v -2.50000 -1.00000 0.00000
v -3.50000 0.00000 0.00000
v -2.50000 0.00000 0.00000
v -3.50000 1.00000 0.00000
v -2.50000 1.00000 0.00000
v -3.50000 2.00000 0.00000
v -2.50000 2.00000 0.00000
v -3.50000 3.00000 0.00000
v -2.50000 3.00000 0.00000
v -3.50000 4.00000 0.00000
v -2.50000 4.00000 0.00000
v -3.50000 5.00000 0.00000
v -2.50000 5.00000 0.00000
v -1.50000 -5.00000 0.00000
v -1.50000 -4.00000 0.00000
v -1.50000 -3.00000 0.00000
v -1.50000 -2.00000 0.00000
v -1.50000 -1.00000 0.00000
v -1.50000 0.00000 0.00000
v -1.50000 1.00000 0.00000
v -1.50000 2.00000 0.00000
v -1.50000 3.00000 0.00000
v -1.50000 4.00000 0.00000
v -1.50000 5.00000 0.00000
v -0.50000 -5.00000 0.00000
v -0.50000 -4.00000 0.00000
v -0.50000 -3.00000 0.00000
v -0.50000 -1.00000 0.00000
v -0.50000 0.00000 0.00000
v -0.50000 1.00000 0.00000
v 0.50000 -5.00000 0.00000
v 0.50000 -4.00000 0.00000
v 0.50000 -3.00000 0.00000
v 0.50000 -1.00000 0.00000
v 0.50000 0.00000 0.00000
v 0.50000 1.00000 0.00000
v 1.50000 -5.00000 0.00000
v 1.50000 -4.00000 0.00000
v 1.50000 -3.00000 0.00000
v 1.50000 -1.00000 0.00000
v 1.50000 0.00000 0.00000
v 1.50000 1.00000 0.00000
v 2.50000 -5.00000 0.00000
v 2.50000 -4.00000 0.00000
v 2.50000 -3.00000 0.00000
v 1.50000 -2.00000 0.00000
v 2.50000 -2.00000 0.00000
v 2.50000 -1.00000 0.00000
v 2.50000 0.00000 0.00000
v 2.50000 1.00000 0.00000
v 3.50000 -4.00000 0.00000
v 3.50000 -5.00000 0.00000
v 3.50000 -3.00000 0.00000
v 3.50000 -2.00000 0.00000
v 3.50000 -1.00000 0.00000
v 3.50000 0.00000 0.00000
v 3.50000 1.00000 0.00000

vt 0.25000 0.50000
vt 0.25000 0.25000
vt 0.50000 0.25000
vt 0.50000 0.50000

g Matrix_9
usemtl 6_Material
f 1/1/3 2/2/3 3/3/3 4/4/3
f 3/1/6 2/2/6 5/3/6 6/4/6
f 7/1/2 5/2/2 2/3/2 1/4/2
f 8/1/3 1/2/3 4/3/3 9/4/3
f 10/1/2 7/2/2 1/3/2 8/4/2
f 11/1/3 8/2/3 9/3/3 12/4/3
f 13/1/2 10/2/2 8/3/2 11/4/2
f 14/1/3 11/2/3 12/3/3 15/4/3
f 16/1/2 13/2/2 11/3/2 14/4/2
f 17/1/3 14/2/3 15/3/3 18/4/3
f 19/1/2 16/2/2 14/3/2 17/4/2
f 20/1/3 17/2/3 18/3/3 21/4/3
f 22/1/2 19/2/2 17/3/2 20/4/2
f 23/1/3 20/2/3 21/3/3 24/4/3
f 25/1/2 22/2/2 20/3/2 23/4/2
f 26/1/3 23/2/3 24/3/3 27/4/3
f 28/1/2 25/2/2 23/3/2 26/4/2
f 29/1/3 26/2/3 27/3/3 30/4/3
f 31/1/2 28/2/2 26/3/2 29/4/2
f 32/1/3 29/2/3 30/3/3 33/4/3
f 32/1/5 33/2/5 34/3/5 35/4/5
f 35/1/2 31/2/2 29/3/2 32/4/2
f 6/1/6 5/2/6 36/3/6 37/4/6
f 38/1/2 36/2/2 5/3/2 7/4/2
f 39/1/2 38/2/2 7/3/2 10/4/2
f 40/1/4 41/2/4 39/3/4 42/4/4
f 42/1/2 39/2/2 10/3/2 13/4/2
f 43/1/4 40/2/4 42/3/4 44/4/4
f 44/1/2 42/2/2 13/3/2 16/4/2
f 45/1/2 44/2/2 16/3/2 19/4/2
f 46/1/2 45/2/2 19/3/2 22/4/2
f 47/1/4 48/2/4 46/3/4 49/4/4
f 49/1/2 46/2/2 22/3/2 25/4/2
f 50/1/4 47/2/4 49/3/4 51/4/4
f 51/1/2 49/2/2 25/3/2 28/4/2
f 52/1/4 50/2/4 51/3/4 53/4/4
f 53/1/2 51/2/2 28/3/2 31/4/2
f 54/1/4 52/2/4 53/3/4 55/4/4
f 35/1/5 34/2/5 54/3/5 55/4/5
f 55/1/2 53/2/2 31/3/2 35/4/2
f 37/1/6 36/2/6 56/3/6 57/4/6
f 58/1/2 56/2/2 36/3/2 38/4/2
f 39/1/5 41/2/5 59/3/5 60/4/5
f 60/1/2 58/2/2 38/3/2 39/4/2
f 43/1/6 44/2/6 61/3/6 62/4/6
f 63/1/2 61/2/2 44/3/2 45/4/2
f 46/1/5 48/2/5 64/3/5 65/4/5
f 65/1/2 63/2/2 45/3/2 46/4/2
f 57/1/6 56/2/6 66/3/6 67/4/6
f 68/1/2 66/2/2 56/3/2 58/4/2
f 60/1/5 59/2/5 69/3/5 70/4/5
f 70/1/2 68/2/2 58/3/2 60/4/2
f 62/1/6 61/2/6 71/3/6 72/4/6
f 73/1/2 71/2/2 61/3/2 63/4/2
f 65/1/5 64/2/5 74/3/5 75/4/5
f 75/1/2 73/2/2 63/3/2 65/4/2
f 67/1/6 66/2/6 76/3/6 77/4/6
f 78/1/2 76/2/2 66/3/2 68/4/2
f 70/1/5 69/2/5 79/3/5 80/4/5
f 80/1/2 78/2/2 68/3/2 70/4/2
f 72/1/6 71/2/6 81/3/6 82/4/6
f 83/1/2 81/2/2 71/3/2 73/4/2
f 75/1/5 74/2/5 84/3/5 85/4/5
f 85/1/2 83/2/2 73/3/2 75/4/2
f 77/1/6 76/2/6 86/3/6 87/4/6
f 88/1/2 86/2/2 76/3/2 78/4/2
f 89/1/2 88/2/2 78/3/2 80/4/2
f 90/1/3 80/2/3 79/3/3 91/4/3
f 92/1/2 89/2/2 80/3/2 90/4/2
f 81/1/3 90/2/3 91/3/3 82/4/3
f 93/1/2 92/2/2 90/3/2 81/4/2
f 94/1/2 93/2/2 81/3/2 83/4/2
f 85/1/5 84/2/5 95/3/5 96/4/5
f 96/1/2 94/2/2 83/3/2 85/4/2
f 97/1/4 98/2/4 99/3/4 100/4/4
f 87/1/6 86/2/6 99/3/6 98/4/6
f 100/1/2 99/2/2 86/3/2 88/4/2
f 101/1/4 97/2/4 100/3/4 102/4/4
f 102/1/2 100/2/2 88/3/2 89/4/2
f 103/1/4 101/2/4 102/3/4 104/4/4
f 104/1/2 102/2/2 89/3/2 92/4/2
f 105/1/4 103/2/4 104/3/4 106/4/4
f 106/1/2 104/2/2 92/3/2 93/4/2
f 107/1/4 105/2/4 106/3/4 108/4/4
f 108/1/2 106/2/2 93/3/2 94/4/2
f 109/1/4 107/2/4 108/3/4 110/4/4
f 96/1/5 95/2/5 109/3/5 110/4/5
f 110/1/2 108/2/2 94/3/2 96/4/2
f 4/1/3 3/2/3 111/3/3 112/4/3
f 111/1/6 3/2/6 6/3/6 113/4/6
f 112/1/1 111/2/1 113/3/1 114/4/1
f 9/1/3 4/2/3 112/3/3 115/4/3
f 115/1/1 112/2/1 114/3/1 116/4/1
f 12/1/3 9/2/3 115/3/3 117/4/3
f 117/1/1 115/2/1 116/3/1 118/4/1
f 15/1/3 12/2/3 117/3/3 119/4/3
f 119/1/1 117/2/1 118/3/1 120/4/1
f 18/1/3 15/2/3 119/3/3 121/4/3
f 121/1/1 119/2/1 120/3/1 122/4/1
f 21/1/3 18/2/3 121/3/3 123/4/3
f 123/1/1 121/2/1 122/3/1 124/4/1
f 24/1/3 21/2/3 123/3/3 125/4/3
f 125/1/1 123/2/1 124/3/1 126/4/1
f 27/1/3 24/2/3 125/3/3 127/4/3
f 127/1/1 125/2/1 126/3/1 128/4/1
f 30/1/3 27/2/3 127/3/3 129/4/3
f 129/1/1 127/2/1 128/3/1 130/4/1
f 33/1/3 30/2/3 129/3/3 131/4/3
f 33/1/5 131/2/5 132/3/5 34/4/5
f 131/1/1 129/2/1 130/3/1 132/4/1
f 113/1/6 6/2/6 37/3/6 133/4/6
f 114/1/1 113/2/1 133/3/1 134/4/1
f 116/1/1 114/2/1 134/3/1 135/4/1
f 136/1/4 135/2/4 41/3/4 40/4/4
f 118/1/1 116/2/1 135/3/1 136/4/1
f 137/1/4 136/2/4 40/3/4 43/4/4
f 120/1/1 118/2/1 136/3/1 137/4/1
f 122/1/1 120/2/1 137/3/1 138/4/1
f 124/1/1 122/2/1 138/3/1 139/4/1
f 140/1/4 139/2/4 48/3/4 47/4/4
f 126/1/1 124/2/1 139/3/1 140/4/1
f 141/1/4 140/2/4 47/3/4 50/4/4
f 128/1/1 126/2/1 140/3/1 141/4/1
f 142/1/4 141/2/4 50/3/4 52/4/4
f 130/1/1 128/2/1 141/3/1 142/4/1
f 143/1/4 142/2/4 52/3/4 54/4/4
f 34/1/5 132/2/5 143/3/5 54/4/5
f 132/1/1 130/2/1 142/3/1 143/4/1
f 133/1/6 37/2/6 57/3/6 144/4/6
f 134/1/1 133/2/1 144/3/1 145/4/1
f 41/1/5 135/2/5 146/3/5 59/4/5
f 135/1/1 134/2/1 145/3/1 146/4/1
f 137/1/6 43/2/6 62/3/6 147/4/6
f 138/1/1 137/2/1 147/3/1 148/4/1
f 48/1/5 139/2/5 149/3/5 64/4/5
f 139/1/1 138/2/1 148/3/1 149/4/1
f 144/1/6 57/2/6 67/3/6 150/4/6
f 145/1/1 144/2/1 150/3/1 151/4/1
f 59/1/5 146/2/5 152/3/5 69/4/5
f 146/1/1 145/2/1 151/3/1 152/4/1
f 147/1/6 62/2/6 72/3/6 153/4/6
f 148/1/1 147/2/1 153/3/1 154/4/1
f 64/1/5 149/2/5 155/3/5 74/4/5
f 149/1/1 148/2/1 154/3/1 155/4/1
f 150/1/6 67/2/6 77/3/6 156/4/6
f 151/1/1 150/2/1 156/3/1 157/4/1
f 69/1/5 152/2/5 158/3/5 79/4/5
f 152/1/1 151/2/1 157/3/1 158/4/1
f 153/1/6 72/2/6 82/3/6 159/4/6
f 154/1/1 153/2/1 159/3/1 160/4/1
f 74/1/5 155/2/5 161/3/5 84/4/5
f 155/1/1 154/2/1 160/3/1 161/4/1
f 156/1/6 77/2/6 87/3/6 162/4/6
f 157/1/1 156/2/1 162/3/1 163/4/1
f 158/1/1 157/2/1 163/3/1 164/4/1
f 91/1/3 79/2/3 158/3/3 165/4/3
f 165/1/1 158/2/1 164/3/1 166/4/1
f 82/1/3 91/2/3 165/3/3 159/4/3
f 159/1/1 165/2/1 166/3/1 167/4/1
f 160/1/1 159/2/1 167/3/1 168/4/1
f 84/1/5 161/2/5 169/3/5 95/4/5
f 161/1/1 160/2/1 168/3/1 169/4/1
f 170/1/4 171/2/4 98/3/4 97/4/4
f 162/1/6 87/2/6 98/3/6 171/4/6
f 163/1/1 162/2/1 171/3/1 170/4/1
f 172/1/4 170/2/4 97/3/4 101/4/4
f 164/1/1 163/2/1 170/3/1 172/4/1
f 173/1/4 172/2/4 101/3/4 103/4/4
f 166/1/1 164/2/1 172/3/1 173/4/1
f 174/1/4 173/2/4 103/3/4 105/4/4
f 167/1/1 166/2/1 173/3/1 174/4/1
f 175/1/4 174/2/4 105/3/4 107/4/4
f 168/1/1 167/2/1 174/3/1 175/4/1
f 176/1/4 175/2/4 107/3/4 109/4/4
f 95/1/5 169/2/5 176/3/5 109/4/5
f 169/1/1 168/2/1 175/3/1 176/4/1
