# This file was created with Minddesk Qubicle 3.0
# Get Qubicle at www.getqubicle.com

mtllib 1.mtl

vn 0.0 0.0 1.0
vn 0.0 0.0 -1.0
vn -1.0 0.0 0.0
vn 1.0 0.0 0.0
vn 0.0 1.0 0.0
vn 0.0 -1.0 0.0

v -2.00000 3.00000 -2.00000
v -2.00000 2.00000 -2.00000
v -2.00000 2.00000 -1.00000
v -2.00000 3.00000 -1.00000
v -1.00000 3.00000 -1.00000
v -1.00000 3.00000 -2.00000
v -1.00000 2.00000 -2.00000
v -1.00000 2.00000 -1.00000
v 0.00000 2.00000 -2.00000
v 0.00000 2.00000 -1.00000
v 0.00000 3.00000 -2.00000
v -1.00000 4.00000 -2.00000
v -1.00000 4.00000 -1.00000
v 0.00000 4.00000 -1.00000
v 0.00000 4.00000 -2.00000
v 0.00000 -4.00000 -2.00000
v 0.00000 -5.00000 -2.00000
v 0.00000 -5.00000 -1.00000
v 0.00000 -4.00000 -1.00000
v 1.00000 -5.00000 -2.00000
v 1.00000 -5.00000 -1.00000
v 1.00000 -4.00000 -2.00000
v 0.00000 -3.00000 -2.00000
v 0.00000 -3.00000 -1.00000
v 1.00000 -3.00000 -2.00000
v 0.00000 -2.00000 -2.00000
v 0.00000 -2.00000 -1.00000
v 1.00000 -2.00000 -2.00000
v 0.00000 -1.00000 -2.00000
v 0.00000 -1.00000 -1.00000
v 1.00000 -1.00000 -2.00000
v 0.00000 0.00000 -2.00000
v 0.00000 0.00000 -1.00000
v 1.00000 0.00000 -2.00000
v 0.00000 1.00000 -2.00000
v 0.00000 1.00000 -1.00000
v 1.00000 1.00000 -2.00000
v 1.00000 2.00000 -2.00000
v 1.00000 3.00000 -2.00000
v 1.00000 4.00000 -2.00000
v 0.00000 5.00000 -2.00000
v 0.00000 5.00000 -1.00000
v 1.00000 5.00000 -1.00000
v 1.00000 5.00000 -2.00000
v 2.00000 -4.00000 -1.00000
v 2.00000 -5.00000 -1.00000
v 2.00000 -5.00000 -2.00000
v 2.00000 -4.00000 -2.00000
v 2.00000 -3.00000 -1.00000
v 2.00000 -3.00000 -2.00000
v 2.00000 -2.00000 -1.00000
v 2.00000 -2.00000 -2.00000
v 2.00000 -1.00000 -1.00000
v 2.00000 -1.00000 -2.00000
v 2.00000 0.00000 -1.00000
v 2.00000 0.00000 -2.00000
v 2.00000 1.00000 -1.00000
v 2.00000 1.00000 -2.00000
v 2.00000 2.00000 -1.00000
v 2.00000 2.00000 -2.00000
v 2.00000 3.00000 -1.00000
v 2.00000 3.00000 -2.00000
v 2.00000 4.00000 -1.00000
v 2.00000 4.00000 -2.00000
v 2.00000 5.00000 -1.00000
v 2.00000 5.00000 -2.00000
v -2.00000 2.00000 0.00000
v -2.00000 3.00000 0.00000
v -1.00000 3.00000 0.00000
v -1.00000 2.00000 0.00000
v 0.00000 2.00000 0.00000
v 0.00000 3.00000 0.00000
v -1.00000 4.00000 0.00000
v 0.00000 4.00000 0.00000
v 0.00000 -5.00000 0.00000
v 0.00000 -4.00000 0.00000
v 1.00000 -5.00000 0.00000
v 1.00000 -4.00000 0.00000
v 0.00000 -3.00000 0.00000
v 1.00000 -3.00000 0.00000
v 0.00000 -2.00000 0.00000
v 1.00000 -2.00000 0.00000
v 0.00000 -1.00000 0.00000
v 1.00000 -1.00000 0.00000
v 0.00000 0.00000 0.00000
v 1.00000 0.00000 0.00000
v 0.00000 1.00000 0.00000
v 1.00000 1.00000 0.00000
v 1.00000 2.00000 0.00000
v 1.00000 3.00000 0.00000
v 1.00000 4.00000 0.00000
v 0.00000 5.00000 0.00000
v 1.00000 5.00000 0.00000
v 2.00000 -4.00000 0.00000
v 2.00000 -5.00000 0.00000
v 2.00000 -3.00000 0.00000
v 2.00000 -2.00000 0.00000
v 2.00000 -1.00000 0.00000
v 2.00000 0.00000 0.00000
v 2.00000 1.00000 0.00000
v 2.00000 2.00000 0.00000
v 2.00000 3.00000 0.00000
v 2.00000 4.00000 0.00000
v 2.00000 5.00000 0.00000

vt 0.06250 0.50000
vt 0.06250 0.25000
vt 0.12500 0.25000
vt 0.12500 0.50000
vt 0.25000 0.50000
vt 0.25000 0.25000
vt 0.31250 0.25000
vt 0.31250 0.50000

g Matrix_9
usemtl 1_Material
f 1/1/3 2/2/3 3/3/3 4/4/3
f 1/1/5 4/2/5 5/3/5 6/4/5
f 3/1/6 2/2/6 7/3/6 8/4/6
f 6/1/2 7/2/2 2/3/2 1/4/2
f 8/1/6 7/2/6 9/3/6 10/4/6
f 11/1/2 9/2/2 7/3/2 6/4/2
f 12/1/3 6/2/3 5/3/3 13/4/3
f 12/1/5 13/2/5 14/3/5 15/4/5
f 15/1/2 11/2/2 6/3/2 12/4/2
f 16/5/3 17/6/3 18/7/3 19/8/3
f 18/5/6 17/6/6 20/7/6 21/8/6
f 22/5/2 20/6/2 17/7/2 16/8/2
f 23/5/3 16/6/3 19/7/3 24/8/3
f 25/5/2 22/6/2 16/7/2 23/8/2
f 26/5/3 23/6/3 24/7/3 27/8/3
f 28/5/2 25/6/2 23/7/2 26/8/2
f 29/5/3 26/6/3 27/7/3 30/8/3
f 31/5/2 28/6/2 26/7/2 29/8/2
f 32/5/3 29/6/3 30/7/3 33/8/3
f 34/5/2 31/6/2 29/7/2 32/8/2
f 35/5/3 32/6/3 33/7/3 36/8/3
f 37/5/2 34/6/2 32/7/2 35/8/2
f 9/5/3 35/6/3 36/7/3 10/8/3
f 38/5/2 37/6/2 35/7/2 9/8/2
f 39/5/2 38/6/2 9/7/2 11/8/2
f 40/5/2 39/6/2 11/7/2 15/8/2
f 41/5/3 15/6/3 14/7/3 42/8/3
f 41/5/5 42/6/5 43/7/5 44/8/5
f 44/5/2 40/6/2 15/7/2 41/8/2
f 45/5/4 46/6/4 47/7/4 48/8/4
f 21/5/6 20/6/6 47/7/6 46/8/6
f 48/5/2 47/6/2 20/7/2 22/8/2
f 49/5/4 45/6/4 48/7/4 50/8/4
f 50/5/2 48/6/2 22/7/2 25/8/2
f 51/5/4 49/6/4 50/7/4 52/8/4
f 52/5/2 50/6/2 25/7/2 28/8/2
f 53/5/4 51/6/4 52/7/4 54/8/4
f 54/5/2 52/6/2 28/7/2 31/8/2
f 55/5/4 53/6/4 54/7/4 56/8/4
f 56/5/2 54/6/2 31/7/2 34/8/2
f 57/5/4 55/6/4 56/7/4 58/8/4
f 58/5/2 56/6/2 34/7/2 37/8/2
f 59/5/4 57/6/4 58/7/4 60/8/4
f 60/5/2 58/6/2 37/7/2 38/8/2
f 61/5/4 59/6/4 60/7/4 62/8/4
f 62/5/2 60/6/2 38/7/2 39/8/2
f 63/5/4 61/6/4 62/7/4 64/8/4
f 64/5/2 62/6/2 39/7/2 40/8/2
f 65/5/4 63/6/4 64/7/4 66/8/4
f 44/5/5 43/6/5 65/7/5 66/8/5
f 66/5/2 64/6/2 40/7/2 44/8/2
f 4/1/3 3/2/3 67/3/3 68/4/3
f 4/1/5 68/2/5 69/3/5 5/4/5
f 67/1/6 3/2/6 8/3/6 70/4/6
f 68/1/1 67/2/1 70/3/1 69/4/1
f 70/1/6 8/2/6 10/3/6 71/4/6
f 69/1/1 70/2/1 71/3/1 72/4/1
f 13/1/3 5/2/3 69/3/3 73/4/3
f 13/1/5 73/2/5 74/3/5 14/4/5
f 73/1/1 69/2/1 72/3/1 74/4/1
f 19/5/3 18/6/3 75/7/3 76/8/3
f 75/5/6 18/6/6 21/7/6 77/8/6
f 76/5/1 75/6/1 77/7/1 78/8/1
f 24/5/3 19/6/3 76/7/3 79/8/3
f 79/5/1 76/6/1 78/7/1 80/8/1
f 27/5/3 24/6/3 79/7/3 81/8/3
f 81/5/1 79/6/1 80/7/1 82/8/1
f 30/5/3 27/6/3 81/7/3 83/8/3
f 83/5/1 81/6/1 82/7/1 84/8/1
f 33/5/3 30/6/3 83/7/3 85/8/3
f 85/5/1 83/6/1 84/7/1 86/8/1
f 36/5/3 33/6/3 85/7/3 87/8/3
f 87/5/1 85/6/1 86/7/1 88/8/1
f 10/5/3 36/6/3 87/7/3 71/8/3
f 71/5/1 87/6/1 88/7/1 89/8/1
f 72/5/1 71/6/1 89/7/1 90/8/1
f 74/5/1 72/6/1 90/7/1 91/8/1
f 42/5/3 14/6/3 74/7/3 92/8/3
f 42/5/5 92/6/5 93/7/5 43/8/5
f 92/5/1 74/6/1 91/7/1 93/8/1
f 94/5/4 95/6/4 46/7/4 45/8/4
f 77/5/6 21/6/6 46/7/6 95/8/6
f 78/5/1 77/6/1 95/7/1 94/8/1
f 96/5/4 94/6/4 45/7/4 49/8/4
f 80/5/1 78/6/1 94/7/1 96/8/1
f 97/5/4 96/6/4 49/7/4 51/8/4
f 82/5/1 80/6/1 96/7/1 97/8/1
f 98/5/4 97/6/4 51/7/4 53/8/4
f 84/5/1 82/6/1 97/7/1 98/8/1
f 99/5/4 98/6/4 53/7/4 55/8/4
f 86/5/1 84/6/1 98/7/1 99/8/1
f 100/5/4 99/6/4 55/7/4 57/8/4
f 88/5/1 86/6/1 99/7/1 100/8/1
f 101/5/4 100/6/4 57/7/4 59/8/4
f 89/5/1 88/6/1 100/7/1 101/8/1
f 102/5/4 101/6/4 59/7/4 61/8/4
f 90/5/1 89/6/1 101/7/1 102/8/1
f 103/5/4 102/6/4 61/7/4 63/8/4
f 91/5/1 90/6/1 102/7/1 103/8/1
f 104/5/4 103/6/4 63/7/4 65/8/4
f 43/5/5 93/6/5 104/7/5 65/8/5
f 93/5/1 91/6/1 103/7/1 104/8/1
