# This file was created with Minddesk Qubicle 3.0
# Get Qubicle at www.getqubicle.com

mtllib 7.mtl

vn 0.0 0.0 1.0
vn 0.0 0.0 -1.0
vn -1.0 0.0 0.0
vn 1.0 0.0 0.0
vn 0.0 1.0 0.0
vn 0.0 -1.0 0.0

v -3.50000 4.00000 -2.00000
v -3.50000 3.00000 -2.00000
v -3.50000 3.00000 -1.00000
v -3.50000 4.00000 -1.00000
v -2.50000 3.00000 -2.00000
v -2.50000 3.00000 -1.00000
v -2.50000 4.00000 -2.00000
v -3.50000 5.00000 -2.00000
v -3.50000 5.00000 -1.00000
v -2.50000 5.00000 -1.00000
v -2.50000 5.00000 -2.00000
v -1.50000 3.00000 -2.00000
v -1.50000 3.00000 -1.00000
v -1.50000 4.00000 -2.00000
v -1.50000 5.00000 -1.00000
v -1.50000 5.00000 -2.00000
v -0.50000 3.00000 -2.00000
v -0.50000 3.00000 -1.00000
v -0.50000 4.00000 -2.00000
v -0.50000 5.00000 -1.00000
v -0.50000 5.00000 -2.00000
v 0.50000 3.00000 -2.00000
v 0.50000 3.00000 -1.00000
v 0.50000 4.00000 -2.00000
v 0.50000 5.00000 -1.00000
v 0.50000 5.00000 -2.00000
v 1.50000 3.00000 -2.00000
v 1.50000 3.00000 -1.00000
v 1.50000 4.00000 -2.00000
v 1.50000 5.00000 -1.00000
v 1.50000 5.00000 -2.00000
v 1.50000 -4.00000 -2.00000
v 1.50000 -5.00000 -2.00000
v 1.50000 -5.00000 -1.00000
v 1.50000 -4.00000 -1.00000
v 2.50000 -5.00000 -2.00000
v 2.50000 -5.00000 -1.00000
v 2.50000 -4.00000 -2.00000
v 1.50000 -3.00000 -2.00000
v 1.50000 -3.00000 -1.00000
v 2.50000 -3.00000 -2.00000
v 1.50000 -2.00000 -2.00000
v 1.50000 -2.00000 -1.00000
v 2.50000 -2.00000 -2.00000
v 1.50000 -1.00000 -2.00000
v 1.50000 -1.00000 -1.00000
v 2.50000 -1.00000 -2.00000
v 1.50000 0.00000 -2.00000
v 1.50000 0.00000 -1.00000
v 2.50000 0.00000 -2.00000
v 1.50000 1.00000 -2.00000
v 1.50000 1.00000 -1.00000
v 2.50000 1.00000 -2.00000
v 1.50000 2.00000 -2.00000
v 1.50000 2.00000 -1.00000
v 2.50000 2.00000 -2.00000
v 2.50000 3.00000 -2.00000
v 2.50000 4.00000 -2.00000
v 2.50000 5.00000 -1.00000
v 2.50000 5.00000 -2.00000
v 3.50000 -4.00000 -1.00000
v 3.50000 -5.00000 -1.00000
v 3.50000 -5.00000 -2.00000
v 3.50000 -4.00000 -2.00000
v 3.50000 -3.00000 -1.00000
v 3.50000 -3.00000 -2.00000
v 3.50000 -2.00000 -1.00000
v 3.50000 -2.00000 -2.00000
v 3.50000 -1.00000 -1.00000
v 3.50000 -1.00000 -2.00000
v 3.50000 0.00000 -1.00000
v 3.50000 0.00000 -2.00000
v 3.50000 1.00000 -1.00000
v 3.50000 1.00000 -2.00000
v 3.50000 2.00000 -1.00000
v 3.50000 2.00000 -2.00000
v 3.50000 3.00000 -1.00000
v 3.50000 3.00000 -2.00000
v 3.50000 4.00000 -1.00000
v 3.50000 4.00000 -2.00000
v 3.50000 5.00000 -1.00000
v 3.50000 5.00000 -2.00000
v -3.50000 3.00000 0.00000
v -3.50000 4.00000 0.00000
v -2.50000 3.00000 0.00000
v -2.50000 4.00000 0.00000
v -3.50000 5.00000 0.00000
v -2.50000 5.00000 0.00000
v -1.50000 3.00000 0.00000
v -1.50000 4.00000 0.00000
v -1.50000 5.00000 0.00000
v -0.50000 3.00000 0.00000
v -0.50000 4.00000 0.00000
v -0.50000 5.00000 0.00000
v 0.50000 3.00000 0.00000
v 0.50000 4.00000 0.00000
v 0.50000 5.00000 0.00000
v 1.50000 3.00000 0.00000
v 1.50000 4.00000 0.00000
v 1.50000 5.00000 0.00000
v 1.50000 -5.00000 0.00000
v 1.50000 -4.00000 0.00000
v 2.50000 -5.00000 0.00000
v 2.50000 -4.00000 0.00000
v 1.50000 -3.00000 0.00000
v 2.50000 -3.00000 0.00000
v 1.50000 -2.00000 0.00000
v 2.50000 -2.00000 0.00000
v 1.50000 -1.00000 0.00000
v 2.50000 -1.00000 0.00000
v 1.50000 0.00000 0.00000
v 2.50000 0.00000 0.00000
v 1.50000 1.00000 0.00000
v 2.50000 1.00000 0.00000
v 1.50000 2.00000 0.00000
v 2.50000 2.00000 0.00000
v 2.50000 3.00000 0.00000
v 2.50000 4.00000 0.00000
v 2.50000 5.00000 0.00000
v 3.50000 -4.00000 0.00000
v 3.50000 -5.00000 0.00000
v 3.50000 -3.00000 0.00000
v 3.50000 -2.00000 0.00000
v 3.50000 -1.00000 0.00000
v 3.50000 0.00000 0.00000
v 3.50000 1.00000 0.00000
v 3.50000 2.00000 0.00000
v 3.50000 3.00000 0.00000
v 3.50000 4.00000 0.00000
v 3.50000 5.00000 0.00000

vt 0.25000 0.50000
vt 0.25000 0.25000
vt 0.50000 0.25000
vt 0.50000 0.50000

g Matrix_9
usemtl 7_Material
f 1/1/3 2/2/3 3/3/3 4/4/3
f 3/1/6 2/2/6 5/3/6 6/4/6
f 7/1/2 5/2/2 2/3/2 1/4/2
f 8/1/3 1/2/3 4/3/3 9/4/3
f 8/1/5 9/2/5 10/3/5 11/4/5
f 11/1/2 7/2/2 1/3/2 8/4/2
f 6/1/6 5/2/6 12/3/6 13/4/6
f 14/1/2 12/2/2 5/3/2 7/4/2
f 11/1/5 10/2/5 15/3/5 16/4/5
f 16/1/2 14/2/2 7/3/2 11/4/2
f 13/1/6 12/2/6 17/3/6 18/4/6
f 19/1/2 17/2/2 12/3/2 14/4/2
f 16/1/5 15/2/5 20/3/5 21/4/5
f 21/1/2 19/2/2 14/3/2 16/4/2
f 18/1/6 17/2/6 22/3/6 23/4/6
f 24/1/2 22/2/2 17/3/2 19/4/2
f 21/1/5 20/2/5 25/3/5 26/4/5
f 26/1/2 24/2/2 19/3/2 21/4/2
f 23/1/6 22/2/6 27/3/6 28/4/6
f 29/1/2 27/2/2 22/3/2 24/4/2
f 26/1/5 25/2/5 30/3/5 31/4/5
f 31/1/2 29/2/2 24/3/2 26/4/2
f 32/1/3 33/2/3 34/3/3 35/4/3
f 34/1/6 33/2/6 36/3/6 37/4/6
f 38/1/2 36/2/2 33/3/2 32/4/2
f 39/1/3 32/2/3 35/3/3 40/4/3
f 41/1/2 38/2/2 32/3/2 39/4/2
f 42/1/3 39/2/3 40/3/3 43/4/3
f 44/1/2 41/2/2 39/3/2 42/4/2
f 45/1/3 42/2/3 43/3/3 46/4/3
f 47/1/2 44/2/2 42/3/2 45/4/2
f 48/1/3 45/2/3 46/3/3 49/4/3
f 50/1/2 47/2/2 45/3/2 48/4/2
f 51/1/3 48/2/3 49/3/3 52/4/3
f 53/1/2 50/2/2 48/3/2 51/4/2
f 54/1/3 51/2/3 52/3/3 55/4/3
f 56/1/2 53/2/2 51/3/2 54/4/2
f 27/1/3 54/2/3 55/3/3 28/4/3
f 57/1/2 56/2/2 54/3/2 27/4/2
f 58/1/2 57/2/2 27/3/2 29/4/2
f 31/1/5 30/2/5 59/3/5 60/4/5
f 60/1/2 58/2/2 29/3/2 31/4/2
f 61/1/4 62/2/4 63/3/4 64/4/4
f 37/1/6 36/2/6 63/3/6 62/4/6
f 64/1/2 63/2/2 36/3/2 38/4/2
f 65/1/4 61/2/4 64/3/4 66/4/4
f 66/1/2 64/2/2 38/3/2 41/4/2
f 67/1/4 65/2/4 66/3/4 68/4/4
f 68/1/2 66/2/2 41/3/2 44/4/2
f 69/1/4 67/2/4 68/3/4 70/4/4
f 70/1/2 68/2/2 44/3/2 47/4/2
f 71/1/4 69/2/4 70/3/4 72/4/4
f 72/1/2 70/2/2 47/3/2 50/4/2
f 73/1/4 71/2/4 72/3/4 74/4/4
f 74/1/2 72/2/2 50/3/2 53/4/2
f 75/1/4 73/2/4 74/3/4 76/4/4
f 76/1/2 74/2/2 53/3/2 56/4/2
f 77/1/4 75/2/4 76/3/4 78/4/4
f 78/1/2 76/2/2 56/3/2 57/4/2
f 79/1/4 77/2/4 78/3/4 80/4/4
f 80/1/2 78/2/2 57/3/2 58/4/2
f 81/1/4 79/2/4 80/3/4 82/4/4
f 60/1/5 59/2/5 81/3/5 82/4/5
f 82/1/2 80/2/2 58/3/2 60/4/2
f 4/1/3 3/2/3 83/3/3 84/4/3
f 83/1/6 3/2/6 6/3/6 85/4/6
f 84/1/1 83/2/1 85/3/1 86/4/1
f 9/1/3 4/2/3 84/3/3 87/4/3
f 9/1/5 87/2/5 88/3/5 10/4/5
f 87/1/1 84/2/1 86/3/1 88/4/1
f 85/1/6 6/2/6 13/3/6 89/4/6
f 86/1/1 85/2/1 89/3/1 90/4/1
f 10/1/5 88/2/5 91/3/5 15/4/5
f 88/1/1 86/2/1 90/3/1 91/4/1
f 89/1/6 13/2/6 18/3/6 92/4/6
f 90/1/1 89/2/1 92/3/1 93/4/1
f 15/1/5 91/2/5 94/3/5 20/4/5
f 91/1/1 90/2/1 93/3/1 94/4/1
f 92/1/6 18/2/6 23/3/6 95/4/6
f 93/1/1 92/2/1 95/3/1 96/4/1
f 20/1/5 94/2/5 97/3/5 25/4/5
f 94/1/1 93/2/1 96/3/1 97/4/1
f 95/1/6 23/2/6 28/3/6 98/4/6
f 96/1/1 95/2/1 98/3/1 99/4/1
f 25/1/5 97/2/5 100/3/5 30/4/5
f 97/1/1 96/2/1 99/3/1 100/4/1
f 35/1/3 34/2/3 101/3/3 102/4/3
f 101/1/6 34/2/6 37/3/6 103/4/6
f 102/1/1 101/2/1 103/3/1 104/4/1
f 40/1/3 35/2/3 102/3/3 105/4/3
f 105/1/1 102/2/1 104/3/1 106/4/1
f 43/1/3 40/2/3 105/3/3 107/4/3
f 107/1/1 105/2/1 106/3/1 108/4/1
f 46/1/3 43/2/3 107/3/3 109/4/3
f 109/1/1 107/2/1 108/3/1 110/4/1
f 49/1/3 46/2/3 109/3/3 111/4/3
f 111/1/1 109/2/1 110/3/1 112/4/1
f 52/1/3 49/2/3 111/3/3 113/4/3
f 113/1/1 111/2/1 112/3/1 114/4/1
f 55/1/3 52/2/3 113/3/3 115/4/3
f 115/1/1 113/2/1 114/3/1 116/4/1
f 28/1/3 55/2/3 115/3/3 98/4/3
f 98/1/1 115/2/1 116/3/1 117/4/1
f 99/1/1 98/2/1 117/3/1 118/4/1
f 30/1/5 100/2/5 119/3/5 59/4/5
f 100/1/1 99/2/1 118/3/1 119/4/1
f 120/1/4 121/2/4 62/3/4 61/4/4
f 103/1/6 37/2/6 62/3/6 121/4/6
f 104/1/1 103/2/1 121/3/1 120/4/1
f 122/1/4 120/2/4 61/3/4 65/4/4
f 106/1/1 104/2/1 120/3/1 122/4/1
f 123/1/4 122/2/4 65/3/4 67/4/4
f 108/1/1 106/2/1 122/3/1 123/4/1
f 124/1/4 123/2/4 67/3/4 69/4/4
f 110/1/1 108/2/1 123/3/1 124/4/1
f 125/1/4 124/2/4 69/3/4 71/4/4
f 112/1/1 110/2/1 124/3/1 125/4/1
f 126/1/4 125/2/4 71/3/4 73/4/4
f 114/1/1 112/2/1 125/3/1 126/4/1
f 127/1/4 126/2/4 73/3/4 75/4/4
f 116/1/1 114/2/1 126/3/1 127/4/1
f 128/1/4 127/2/4 75/3/4 77/4/4
f 117/1/1 116/2/1 127/3/1 128/4/1
f 129/1/4 128/2/4 77/3/4 79/4/4
f 118/1/1 117/2/1 128/3/1 129/4/1
f 130/1/4 129/2/4 79/3/4 81/4/4
f 59/1/5 119/2/5 130/3/5 81/4/5
f 119/1/1 118/2/1 129/3/1 130/4/1
