# This file was created with Minddesk Qubicle 3.0
# Get Qubicle at www.getqubicle.com

mtllib 5.mtl

vn 0.0 0.0 1.0
vn 0.0 0.0 -1.0
vn -1.0 0.0 0.0
vn 1.0 0.0 0.0
vn 0.0 1.0 0.0
vn 0.0 -1.0 0.0

v -3.50000 -4.00000 -2.00000
v -3.50000 -5.00000 -2.00000
v -3.50000 -5.00000 -1.00000
v -3.50000 -4.00000 -1.00000
v -2.50000 -5.00000 -2.00000
v -2.50000 -5.00000 -1.00000
v -2.50000 -4.00000 -2.00000
v -3.50000 -3.00000 -2.00000
v -3.50000 -3.00000 -1.00000
v -2.50000 -3.00000 -1.00000
v -2.50000 -3.00000 -2.00000
v -3.50000 2.00000 -2.00000
v -3.50000 1.00000 -2.00000
v -3.50000 1.00000 -1.00000
v -3.50000 2.00000 -1.00000
v -2.50000 1.00000 -2.00000
v -2.50000 1.00000 -1.00000
v -2.50000 2.00000 -2.00000
v -3.50000 3.00000 -2.00000
v -3.50000 3.00000 -1.00000
v -2.50000 3.00000 -2.00000
v -3.50000 4.00000 -2.00000
v -3.50000 4.00000 -1.00000
v -2.50000 4.00000 -2.00000
v -3.50000 5.00000 -2.00000
v -3.50000 5.00000 -1.00000
v -2.50000 5.00000 -1.00000
v -2.50000 5.00000 -2.00000
v -1.50000 -5.00000 -2.00000
v -1.50000 -5.00000 -1.00000
v -1.50000 -4.00000 -2.00000
v -1.50000 -3.00000 -1.00000
v -1.50000 -3.00000 -2.00000
v -2.50000 0.00000 -2.00000
v -2.50000 0.00000 -1.00000
v -1.50000 0.00000 -2.00000
v -1.50000 0.00000 -1.00000
v -1.50000 1.00000 -2.00000
v -1.50000 2.00000 -1.00000
v -1.50000 1.00000 -1.00000
v -1.50000 2.00000 -2.00000
v -1.50000 3.00000 -1.00000
v -1.50000 3.00000 -2.00000
v -1.50000 4.00000 -2.00000
v -1.50000 5.00000 -1.00000
v -1.50000 5.00000 -2.00000
v -0.50000 -5.00000 -2.00000
v -0.50000 -5.00000 -1.00000
v -0.50000 -4.00000 -2.00000
v -0.50000 -3.00000 -1.00000
v -0.50000 -3.00000 -2.00000
v -1.50000 -1.00000 -2.00000
v -1.50000 -1.00000 -1.00000
v -0.50000 -1.00000 -2.00000
v -0.50000 -1.00000 -1.00000
v -0.50000 0.00000 -2.00000
v -0.50000 1.00000 -1.00000
v -0.50000 1.00000 -2.00000
v -0.50000 3.00000 -2.00000
v -0.50000 3.00000 -1.00000
v -0.50000 4.00000 -2.00000
v -0.50000 5.00000 -1.00000
v -0.50000 5.00000 -2.00000
v 0.50000 -5.00000 -2.00000
v 0.50000 -5.00000 -1.00000
v 0.50000 -4.00000 -2.00000
v 0.50000 -3.00000 -1.00000
v 0.50000 -3.00000 -2.00000
v 0.50000 -1.00000 -2.00000
v 0.50000 -1.00000 -1.00000
v 0.50000 0.00000 -2.00000
v 0.50000 1.00000 -1.00000
v 0.50000 1.00000 -2.00000
v 0.50000 3.00000 -2.00000
v 0.50000 3.00000 -1.00000
v 0.50000 4.00000 -2.00000
v 0.50000 5.00000 -1.00000
v 0.50000 5.00000 -2.00000
v 1.50000 -5.00000 -2.00000
v 1.50000 -5.00000 -1.00000
v 1.50000 -4.00000 -2.00000
v 1.50000 -3.00000 -1.00000
v 1.50000 -3.00000 -2.00000
v 1.50000 -1.00000 -2.00000
v 1.50000 -1.00000 -1.00000
v 1.50000 0.00000 -2.00000
v 1.50000 1.00000 -1.00000
v 1.50000 1.00000 -2.00000
v 1.50000 3.00000 -2.00000
v 1.50000 3.00000 -1.00000
v 1.50000 4.00000 -2.00000
v 1.50000 5.00000 -1.00000
v 1.50000 5.00000 -2.00000
v 2.50000 -5.00000 -2.00000
v 2.50000 -5.00000 -1.00000
v 2.50000 -4.00000 -2.00000
v 2.50000 -3.00000 -2.00000
v 1.50000 -2.00000 -2.00000
v 1.50000 -2.00000 -1.00000
v 2.50000 -2.00000 -2.00000
v 2.50000 -1.00000 -2.00000
v 2.50000 0.00000 -2.00000
v 2.50000 1.00000 -1.00000
v 2.50000 1.00000 -2.00000
v 2.50000 3.00000 -2.00000
v 2.50000 3.00000 -1.00000
v 2.50000 4.00000 -2.00000
v 2.50000 5.00000 -1.00000
v 2.50000 5.00000 -2.00000
v 3.50000 -4.00000 -1.00000
v 3.50000 -5.00000 -1.00000
v 3.50000 -5.00000 -2.00000
v 3.50000 -4.00000 -2.00000
v 3.50000 -3.00000 -1.00000
v 3.50000 -3.00000 -2.00000
v 3.50000 -2.00000 -1.00000
v 3.50000 -2.00000 -2.00000
v 3.50000 -1.00000 -1.00000
v 3.50000 -1.00000 -2.00000
v 3.50000 0.00000 -1.00000
v 3.50000 0.00000 -2.00000
v 3.50000 1.00000 -1.00000
v 3.50000 1.00000 -2.00000
v 3.50000 4.00000 -1.00000
v 3.50000 3.00000 -1.00000
v 3.50000 3.00000 -2.00000
v 3.50000 4.00000 -2.00000
v 3.50000 5.00000 -1.00000
v 3.50000 5.00000 -2.00000
v -3.50000 -5.00000 0.00000
v -3.50000 -4.00000 0.00000
v -2.50000 -5.00000 0.00000
v -2.50000 -4.00000 0.00000
v -3.50000 -3.00000 0.00000
v -2.50000 -3.00000 0.00000
v -3.50000 1.00000 0.00000
v -3.50000 2.00000 0.00000
v -2.50000 1.00000 0.00000
v -2.50000 2.00000 0.00000
v -3.50000 3.00000 0.00000
v -2.50000 3.00000 0.00000
v -3.50000 4.00000 0.00000
v -2.50000 4.00000 0.00000
v -3.50000 5.00000 0.00000
v -2.50000 5.00000 0.00000
v -1.50000 -5.00000 0.00000
v -1.50000 -4.00000 0.00000
v -1.50000 -3.00000 0.00000
v -2.50000 0.00000 0.00000
v -1.50000 0.00000 0.00000
v -1.50000 1.00000 0.00000
v -1.50000 2.00000 0.00000
v -1.50000 3.00000 0.00000
v -1.50000 4.00000 0.00000
v -1.50000 5.00000 0.00000
v -0.50000 -5.00000 0.00000
v -0.50000 -4.00000 0.00000
v -0.50000 -3.00000 0.00000
v -1.50000 -1.00000 0.00000
v -0.50000 -1.00000 0.00000
v -0.50000 0.00000 0.00000
v -0.50000 1.00000 0.00000
v -0.50000 3.00000 0.00000
v -0.50000 4.00000 0.00000
v -0.50000 5.00000 0.00000
v 0.50000 -5.00000 0.00000
v 0.50000 -4.00000 0.00000
v 0.50000 -3.00000 0.00000
v 0.50000 -1.00000 0.00000
v 0.50000 0.00000 0.00000
v 0.50000 1.00000 0.00000
v 0.50000 3.00000 0.00000
v 0.50000 4.00000 0.00000
v 0.50000 5.00000 0.00000
v 1.50000 -5.00000 0.00000
v 1.50000 -4.00000 0.00000
v 1.50000 -3.00000 0.00000
v 1.50000 -1.00000 0.00000
v 1.50000 0.00000 0.00000
v 1.50000 1.00000 0.00000
v 1.50000 3.00000 0.00000
v 1.50000 4.00000 0.00000
v 1.50000 5.00000 0.00000
v 2.50000 -5.00000 0.00000
v 2.50000 -4.00000 0.00000
v 2.50000 -3.00000 0.00000
v 1.50000 -2.00000 0.00000
v 2.50000 -2.00000 0.00000
v 2.50000 -1.00000 0.00000
v 2.50000 0.00000 0.00000
v 2.50000 1.00000 0.00000
v 2.50000 3.00000 0.00000
v 2.50000 4.00000 0.00000
v 2.50000 5.00000 0.00000
v 3.50000 -4.00000 0.00000
v 3.50000 -5.00000 0.00000
v 3.50000 -3.00000 0.00000
v 3.50000 -2.00000 0.00000
v 3.50000 -1.00000 0.00000
v 3.50000 0.00000 0.00000
v 3.50000 1.00000 0.00000
v 3.50000 4.00000 0.00000
v 3.50000 3.00000 0.00000
v 3.50000 5.00000 0.00000

vt 0.25000 0.50000
vt 0.25000 0.25000
vt 0.50000 0.25000
vt 0.50000 0.50000

g Matrix_9
usemtl 5_Material
f 1/1/3 2/2/3 3/3/3 4/4/3
f 3/1/6 2/2/6 5/3/6 6/4/6
f 7/1/2 5/2/2 2/3/2 1/4/2
f 8/1/3 1/2/3 4/3/3 9/4/3
f 8/1/5 9/2/5 10/3/5 11/4/5
f 11/1/2 7/2/2 1/3/2 8/4/2
f 12/1/3 13/2/3 14/3/3 15/4/3
f 14/1/6 13/2/6 16/3/6 17/4/6
f 18/1/2 16/2/2 13/3/2 12/4/2
f 19/1/3 12/2/3 15/3/3 20/4/3
f 21/1/2 18/2/2 12/3/2 19/4/2
f 22/1/3 19/2/3 20/3/3 23/4/3
f 24/1/2 21/2/2 19/3/2 22/4/2
f 25/1/3 22/2/3 23/3/3 26/4/3
f 25/1/5 26/2/5 27/3/5 28/4/5
f 28/1/2 24/2/2 22/3/2 25/4/2
f 6/1/6 5/2/6 29/3/6 30/4/6
f 31/1/2 29/2/2 5/3/2 7/4/2
f 11/1/5 10/2/5 32/3/5 33/4/5
f 33/1/2 31/2/2 7/3/2 11/4/2
f 16/1/3 34/2/3 35/3/3 17/4/3
f 35/1/6 34/2/6 36/3/6 37/4/6
f 38/1/2 36/2/2 34/3/2 16/4/2
f 39/1/4 40/2/4 38/3/4 41/4/4
f 41/1/2 38/2/2 16/3/2 18/4/2
f 42/1/4 39/2/4 41/3/4 43/4/4
f 43/1/2 41/2/2 18/3/2 21/4/2
f 44/1/2 43/2/2 21/3/2 24/4/2
f 28/1/5 27/2/5 45/3/5 46/4/5
f 46/1/2 44/2/2 24/3/2 28/4/2
f 30/1/6 29/2/6 47/3/6 48/4/6
f 49/1/2 47/2/2 29/3/2 31/4/2
f 33/1/5 32/2/5 50/3/5 51/4/5
f 51/1/2 49/2/2 31/3/2 33/4/2
f 36/1/3 52/2/3 53/3/3 37/4/3
f 53/1/6 52/2/6 54/3/6 55/4/6
f 56/1/2 54/2/2 52/3/2 36/4/2
f 38/1/5 40/2/5 57/3/5 58/4/5
f 58/1/2 56/2/2 36/3/2 38/4/2
f 42/1/6 43/2/6 59/3/6 60/4/6
f 61/1/2 59/2/2 43/3/2 44/4/2
f 46/1/5 45/2/5 62/3/5 63/4/5
f 63/1/2 61/2/2 44/3/2 46/4/2
f 48/1/6 47/2/6 64/3/6 65/4/6
f 66/1/2 64/2/2 47/3/2 49/4/2
f 51/1/5 50/2/5 67/3/5 68/4/5
f 68/1/2 66/2/2 49/3/2 51/4/2
f 55/1/6 54/2/6 69/3/6 70/4/6
f 71/1/2 69/2/2 54/3/2 56/4/2
f 58/1/5 57/2/5 72/3/5 73/4/5
f 73/1/2 71/2/2 56/3/2 58/4/2
f 60/1/6 59/2/6 74/3/6 75/4/6
f 76/1/2 74/2/2 59/3/2 61/4/2
f 63/1/5 62/2/5 77/3/5 78/4/5
f 78/1/2 76/2/2 61/3/2 63/4/2
f 65/1/6 64/2/6 79/3/6 80/4/6
f 81/1/2 79/2/2 64/3/2 66/4/2
f 68/1/5 67/2/5 82/3/5 83/4/5
f 83/1/2 81/2/2 66/3/2 68/4/2
f 70/1/6 69/2/6 84/3/6 85/4/6
f 86/1/2 84/2/2 69/3/2 71/4/2
f 73/1/5 72/2/5 87/3/5 88/4/5
f 88/1/2 86/2/2 71/3/2 73/4/2
f 75/1/6 74/2/6 89/3/6 90/4/6
f 91/1/2 89/2/2 74/3/2 76/4/2
f 78/1/5 77/2/5 92/3/5 93/4/5
f 93/1/2 91/2/2 76/3/2 78/4/2
f 80/1/6 79/2/6 94/3/6 95/4/6
f 96/1/2 94/2/2 79/3/2 81/4/2
f 97/1/2 96/2/2 81/3/2 83/4/2
f 98/1/3 83/2/3 82/3/3 99/4/3
f 100/1/2 97/2/2 83/3/2 98/4/2
f 84/1/3 98/2/3 99/3/3 85/4/3
f 101/1/2 100/2/2 98/3/2 84/4/2
f 102/1/2 101/2/2 84/3/2 86/4/2
f 88/1/5 87/2/5 103/3/5 104/4/5
f 104/1/2 102/2/2 86/3/2 88/4/2
f 90/1/6 89/2/6 105/3/6 106/4/6
f 107/1/2 105/2/2 89/3/2 91/4/2
f 93/1/5 92/2/5 108/3/5 109/4/5
f 109/1/2 107/2/2 91/3/2 93/4/2
f 110/1/4 111/2/4 112/3/4 113/4/4
f 95/1/6 94/2/6 112/3/6 111/4/6
f 113/1/2 112/2/2 94/3/2 96/4/2
f 114/1/4 110/2/4 113/3/4 115/4/4
f 115/1/2 113/2/2 96/3/2 97/4/2
f 116/1/4 114/2/4 115/3/4 117/4/4
f 117/1/2 115/2/2 97/3/2 100/4/2
f 118/1/4 116/2/4 117/3/4 119/4/4
f 119/1/2 117/2/2 100/3/2 101/4/2
f 120/1/4 118/2/4 119/3/4 121/4/4
f 121/1/2 119/2/2 101/3/2 102/4/2
f 122/1/4 120/2/4 121/3/4 123/4/4
f 104/1/5 103/2/5 122/3/5 123/4/5
f 123/1/2 121/2/2 102/3/2 104/4/2
f 124/1/4 125/2/4 126/3/4 127/4/4
f 106/1/6 105/2/6 126/3/6 125/4/6
f 127/1/2 126/2/2 105/3/2 107/4/2
f 128/1/4 124/2/4 127/3/4 129/4/4
f 109/1/5 108/2/5 128/3/5 129/4/5
f 129/1/2 127/2/2 107/3/2 109/4/2
f 4/1/3 3/2/3 130/3/3 131/4/3
f 130/1/6 3/2/6 6/3/6 132/4/6
f 131/1/1 130/2/1 132/3/1 133/4/1
f 9/1/3 4/2/3 131/3/3 134/4/3
f 9/1/5 134/2/5 135/3/5 10/4/5
f 134/1/1 131/2/1 133/3/1 135/4/1
f 15/1/3 14/2/3 136/3/3 137/4/3
f 136/1/6 14/2/6 17/3/6 138/4/6
f 137/1/1 136/2/1 138/3/1 139/4/1
f 20/1/3 15/2/3 137/3/3 140/4/3
f 140/1/1 137/2/1 139/3/1 141/4/1
f 23/1/3 20/2/3 140/3/3 142/4/3
f 142/1/1 140/2/1 141/3/1 143/4/1
f 26/1/3 23/2/3 142/3/3 144/4/3
f 26/1/5 144/2/5 145/3/5 27/4/5
f 144/1/1 142/2/1 143/3/1 145/4/1
f 132/1/6 6/2/6 30/3/6 146/4/6
f 133/1/1 132/2/1 146/3/1 147/4/1
f 10/1/5 135/2/5 148/3/5 32/4/5
f 135/1/1 133/2/1 147/3/1 148/4/1
f 17/1/3 35/2/3 149/3/3 138/4/3
f 149/1/6 35/2/6 37/3/6 150/4/6
f 138/1/1 149/2/1 150/3/1 151/4/1
f 152/1/4 151/2/4 40/3/4 39/4/4
f 139/1/1 138/2/1 151/3/1 152/4/1
f 153/1/4 152/2/4 39/3/4 42/4/4
f 141/1/1 139/2/1 152/3/1 153/4/1
f 143/1/1 141/2/1 153/3/1 154/4/1
f 27/1/5 145/2/5 155/3/5 45/4/5
f 145/1/1 143/2/1 154/3/1 155/4/1
f 146/1/6 30/2/6 48/3/6 156/4/6
f 147/1/1 146/2/1 156/3/1 157/4/1
f 32/1/5 148/2/5 158/3/5 50/4/5
f 148/1/1 147/2/1 157/3/1 158/4/1
f 37/1/3 53/2/3 159/3/3 150/4/3
f 159/1/6 53/2/6 55/3/6 160/4/6
f 150/1/1 159/2/1 160/3/1 161/4/1
f 40/1/5 151/2/5 162/3/5 57/4/5
f 151/1/1 150/2/1 161/3/1 162/4/1
f 153/1/6 42/2/6 60/3/6 163/4/6
f 154/1/1 153/2/1 163/3/1 164/4/1
f 45/1/5 155/2/5 165/3/5 62/4/5
f 155/1/1 154/2/1 164/3/1 165/4/1
f 156/1/6 48/2/6 65/3/6 166/4/6
f 157/1/1 156/2/1 166/3/1 167/4/1
f 50/1/5 158/2/5 168/3/5 67/4/5
f 158/1/1 157/2/1 167/3/1 168/4/1
f 160/1/6 55/2/6 70/3/6 169/4/6
f 161/1/1 160/2/1 169/3/1 170/4/1
f 57/1/5 162/2/5 171/3/5 72/4/5
f 162/1/1 161/2/1 170/3/1 171/4/1
f 163/1/6 60/2/6 75/3/6 172/4/6
f 164/1/1 163/2/1 172/3/1 173/4/1
f 62/1/5 165/2/5 174/3/5 77/4/5
f 165/1/1 164/2/1 173/3/1 174/4/1
f 166/1/6 65/2/6 80/3/6 175/4/6
f 167/1/1 166/2/1 175/3/1 176/4/1
f 67/1/5 168/2/5 177/3/5 82/4/5
f 168/1/1 167/2/1 176/3/1 177/4/1
f 169/1/6 70/2/6 85/3/6 178/4/6
f 170/1/1 169/2/1 178/3/1 179/4/1
f 72/1/5 171/2/5 180/3/5 87/4/5
f 171/1/1 170/2/1 179/3/1 180/4/1
f 172/1/6 75/2/6 90/3/6 181/4/6
f 173/1/1 172/2/1 181/3/1 182/4/1
f 77/1/5 174/2/5 183/3/5 92/4/5
f 174/1/1 173/2/1 182/3/1 183/4/1
f 175/1/6 80/2/6 95/3/6 184/4/6
f 176/1/1 175/2/1 184/3/1 185/4/1
f 177/1/1 176/2/1 185/3/1 186/4/1
f 99/1/3 82/2/3 177/3/3 187/4/3
f 187/1/1 177/2/1 186/3/1 188/4/1
f 85/1/3 99/2/3 187/3/3 178/4/3
f 178/1/1 187/2/1 188/3/1 189/4/1
f 179/1/1 178/2/1 189/3/1 190/4/1
f 87/1/5 180/2/5 191/3/5 103/4/5
f 180/1/1 179/2/1 190/3/1 191/4/1
f 181/1/6 90/2/6 106/3/6 192/4/6
f 182/1/1 181/2/1 192/3/1 193/4/1
f 92/1/5 183/2/5 194/3/5 108/4/5
f 183/1/1 182/2/1 193/3/1 194/4/1
f 195/1/4 196/2/4 111/3/4 110/4/4
f 184/1/6 95/2/6 111/3/6 196/4/6
f 185/1/1 184/2/1 196/3/1 195/4/1
f 197/1/4 195/2/4 110/3/4 114/4/4
f 186/1/1 185/2/1 195/3/1 197/4/1
f 198/1/4 197/2/4 114/3/4 116/4/4
f 188/1/1 186/2/1 197/3/1 198/4/1
f 199/1/4 198/2/4 116/3/4 118/4/4
f 189/1/1 188/2/1 198/3/1 199/4/1
f 200/1/4 199/2/4 118/3/4 120/4/4
f 190/1/1 189/2/1 199/3/1 200/4/1
f 201/1/4 200/2/4 120/3/4 122/4/4
f 103/1/5 191/2/5 201/3/5 122/4/5
f 191/1/1 190/2/1 200/3/1 201/4/1
f 202/1/4 203/2/4 125/3/4 124/4/4
f 192/1/6 106/2/6 125/3/6 203/4/6
f 193/1/1 192/2/1 203/3/1 202/4/1
f 204/1/4 202/2/4 124/3/4 128/4/4
f 108/1/5 194/2/5 204/3/5 128/4/5
f 194/1/1 193/2/1 202/3/1 204/4/1
